<svg xmlns="http://www.w3.org/2000/svg" fill="none" viewBox="0 0 41 40" height="40" width="41">
<g clip-path="url(#clip0_671_170)">
<path stroke-linejoin="round" stroke-linecap="round" stroke-miterlimit="10" stroke="#532C7F" d="M20.6992 6.75434V7.85059"></path>
<path stroke-linejoin="round" stroke-linecap="round" stroke-miterlimit="10" stroke="#532C7F" d="M24.391 9.43502L23.3477 9.77393"></path>
<path stroke-linejoin="round" stroke-linecap="round" stroke-miterlimit="10" stroke="#532C7F" d="M18.0512 9.77393L17.0078 9.43502"></path>
<path stroke-linejoin="round" stroke-linecap="round" stroke-miterlimit="10" stroke="#532C7F" d="M19.0617 12.8865L18.418 13.7744"></path>
<path stroke-linejoin="round" stroke-linecap="round" stroke-miterlimit="10" stroke="#532C7F" d="M22.3359 12.8865L22.9797 13.7744"></path>
<path stroke-linejoin="round" stroke-linecap="round" stroke-miterlimit="10" stroke="#532C7F" d="M19.0645 25.5396V26.7153"></path>
<path stroke-linejoin="round" stroke-linecap="round" stroke-miterlimit="10" stroke="#532C7F" d="M15.1035 28.4162L16.2219 28.7793"></path>
<path stroke-linejoin="round" stroke-linecap="round" stroke-miterlimit="10" stroke="#532C7F" d="M21.9023 28.7793L23.0206 28.4162"></path>
<path stroke-linejoin="round" stroke-linecap="round" stroke-miterlimit="10" stroke="#532C7F" d="M20.8184 32.118L21.5115 33.0679"></path>
<path stroke-linejoin="round" stroke-linecap="round" stroke-miterlimit="10" stroke="#532C7F" d="M17.3082 32.118L16.6172 33.0679"></path>
<path stroke-linejoin="round" stroke-linecap="round" stroke-miterlimit="10" stroke="#532C7F" d="M24.3917 23.9991C21.3223 20.9302 16.3418 20.9302 13.2725 23.9991C10.2008 27.0701 10.2008 32.0476 13.2725 35.1186C16.3418 38.1896 21.3223 38.1896 24.3917 35.1186C27.4632 32.0476 27.4632 27.0701 24.3917 23.9991Z"></path>
<path stroke-linejoin="round" stroke-linecap="round" stroke-miterlimit="10" stroke="#532C7F" d="M5.82602 3.85025C4.62352 10.8115 7.44711 17.9079 13.1583 24.1143"></path>
<path stroke-linejoin="round" stroke-linecap="round" stroke-miterlimit="10" stroke="#532C7F" d="M24.3911 23.9992C18.4849 19.1347 13.3583 13.38 11.7527 10.247C10.3973 7.60327 9.66664 3.45171 5.8265 3.85031C2.71729 4.17132 0.518312 8.88092 1.53034 15.964C1.64768 16.7965 1.8005 17.6622 2.09065 18.5147C2.30852 19.4124 3.16983 21.9369 4.87213 24.8538C7.1265 28.7773 10.2047 32.4816 13.2719 35.1187"></path>
<path stroke-linejoin="round" stroke-linecap="round" stroke-miterlimit="10" stroke="#532C7F" d="M14.3876 5.09C17.7359 1.74212 23.1638 1.74212 26.5122 5.09C29.8607 8.4378 29.8607 13.8647 26.5122 17.2125C24.6143 19.1122 22.0454 19.9315 19.5674 19.6769C15.9842 16.1962 13.1341 12.7687 11.8984 10.5236C12.0446 8.54186 12.8728 6.60445 14.3876 5.09Z"></path>
<path stroke-linejoin="round" stroke-linecap="round" stroke-miterlimit="10" stroke="#532C7F" d="M32.3573 7.19586L32.0273 8.43359"></path>
<path stroke-linejoin="round" stroke-linecap="round" stroke-miterlimit="10" stroke="#532C7F" d="M35.7194 11.3362L34.4395 11.4048"></path>
<path stroke-linejoin="round" stroke-linecap="round" stroke-miterlimit="10" stroke="#532C7F" d="M32.3594 14.6179L32.82 15.8135"></path>
<path stroke-linejoin="round" stroke-linecap="round" stroke-miterlimit="10" stroke="#532C7F" d="M33.3511 3.50903C30.7955 2.82708 28.2023 3.37621 26.1981 4.78887C26.3051 4.88694 26.41 4.98733 26.5127 5.08996C29.861 8.43776 29.861 13.8647 26.5127 17.2125C26.1627 17.5645 25.7884 17.8767 25.3965 18.1558C26.3731 19.0392 27.5712 19.7123 28.9354 20.0755C33.5105 21.2933 38.2076 18.5742 39.4278 13.9998C40.6458 9.42534 37.9264 4.72902 33.3511 3.50903Z"></path>
<path stroke-linejoin="round" stroke-linecap="round" stroke-miterlimit="10" stroke="#532C7F" d="M3.32227 21.8271L3.32445 21.8315"></path>
</g>
<defs>
<clipPath id="clip0_671_170">
<rect transform="translate(0.5)" fill="white" height="40" width="40"></rect>
</clipPath>
</defs>
</svg>
