<svg xmlns="http://www.w3.org/2000/svg" fill="none" viewBox="0 0 40 40" height="40" width="40">
<path stroke-linejoin="round" stroke-linecap="round" stroke-miterlimit="10" stroke="#532C7F" d="M18.1153 34.883C19.5034 35.4422 24.1013 36.9814 29.0111 35.1749C29.976 35.9478 31.3858 35.8062 32.1764 34.85C32.4652 34.5019 32.6428 34.0749 32.686 33.6246C33.5158 33.8453 34.4355 33.5835 35.0184 32.8784C35.5506 32.2347 35.6672 31.3848 35.4 30.6531C36.0672 30.6655 36.7335 30.3853 37.1917 29.8311C37.9154 28.9559 37.8716 27.6991 37.1378 26.8771C37.6965 26.7979 38.2054 26.5126 38.5643 26.0771C39.4268 25.0482 39.1843 23.4598 38.0566 22.7331C39.9033 22.0133 39.8565 19.1789 37.9771 18.527C39.4716 17.4893 39.0461 15.0169 37.2996 14.5309C38.2156 13.5906 38.128 12.041 37.1123 11.2091C36.1045 10.3678 34.5659 10.573 33.8145 11.6493C33.0088 10.025 30.5007 10.0722 29.7623 11.7348C29.3796 11.2561 28.8977 10.9327 28.3849 10.7602C27.0929 10.3276 26.0577 10.9405 25.7016 11.301C25.26 11.7074 24.9298 12.2923 24.8013 13.0528M26.8016 24.5793L32.8255 23.7462M23.0252 30.4593L29.5987 29.9487M27.3145 23.0593L31.3204 18.2143M8.81734 16.8801L13.9527 22.4762L19.0879 16.8801M7.21094 24.3735L13.9526 30.8896L20.6943 24.3735M13.9527 36.7043V13.2584"></path>
<path stroke-linejoin="round" stroke-linecap="round" stroke-miterlimit="10" stroke="#532C7F" d="M7.83133 33.5286C10.8741 35.9546 13.9521 36.7044 13.9521 36.7044C13.9521 36.7044 20.3893 35.1374 23.8476 29.1988C25.2025 29.1777 26.2945 28.0735 26.2945 26.7136C26.2953 26.2177 26.1471 25.7331 25.8692 25.3225C26.7243 24.9293 27.3183 24.0658 27.3183 23.063C27.3183 22.1475 26.8231 21.3482 26.0863 20.9167C26.6586 20.4612 27.0258 19.7592 27.0258 18.9709C27.0258 17.7261 26.111 16.695 24.917 16.5132C25.3337 16.056 25.5642 15.4596 25.5633 14.8411C25.5732 13.3694 24.2588 12.1971 22.7987 12.3707C23.856 10.4729 21.8367 8.11122 19.7938 8.87325C20.3315 6.95286 18.2452 5.16153 16.4304 5.97075C16.5474 4.53669 15.391 3.2888 13.952 3.29544C12.513 3.28872 11.3567 4.53669 11.4737 5.97075C9.65852 5.16145 7.57281 6.95309 8.11023 8.87325C6.06687 8.11106 4.0482 10.4735 5.10531 12.3707C3.64508 12.1971 2.33094 13.3694 2.34078 14.8411C2.33991 15.4596 2.57044 16.056 2.98703 16.5132C1.79305 16.695 0.878281 17.7261 0.878281 18.9709C0.878281 19.7591 1.24547 20.4611 1.81773 20.9167C1.08109 21.3482 0.585938 22.1475 0.585938 23.063C0.585938 24.0658 1.18 24.9293 2.035 25.3225C1.75706 25.7331 1.60889 26.2177 1.60969 26.7136C1.60969 28.0735 2.70172 29.1777 4.05664 29.1988C4.5918 30.1178 5.19836 30.9318 5.84125 31.6518"></path>
</svg>
