<svg xmlns="http://www.w3.org/2000/svg" fill="none" viewBox="0 0 40 40" height="40" width="40">
<path stroke-linejoin="round" stroke-linecap="round" stroke-miterlimit="2.613" stroke="#532C7F" d="M18.8943 18.8184C19.5126 18.8849 19.9903 18.8952 20.5549 18.8451C21.3674 18.7728 25.7435 17.187 26.5563 17.1147C28.6973 16.9243 29.4553 19.4255 27.1817 20.7686C25.2574 21.9054 23.4729 22.8395 21.6715 23.6524M5.96289 24.9365C8.15374 21.0774 10.7892 19.6191 13.3537 19.0951M25.5825 21.6844L31.3379 21.4894L36.564 15.9204C37.6606 14.8238 40.2504 16.1363 38.7742 18.3795L35.4776 23.3889C34.9452 24.1979 34.2136 25.1575 33.0944 25.5876C29.0998 27.1233 25.4721 28.1219 23.3332 28.2054L15.2826 28.52L13.7662 30.8408"></path>
<path stroke-linejoin="round" stroke-linecap="round" stroke-miterlimit="22.926" stroke="#532C7F" d="M2.48335 31.7609L1.38851 30.9234C0.710699 30.4048 0.58023 29.4259 1.09882 28.748L3.77545 25.2488C4.29405 24.571 5.27303 24.4406 5.95092 24.9592L13.7247 30.9057C14.4026 31.4242 14.5329 32.4033 14.0144 33.0811L11.3378 36.5802C10.8193 37.2581 9.8402 37.3885 9.16239 36.8699L8.06794 36.0327"></path>
<path stroke-linejoin="round" stroke-linecap="round" stroke-miterlimit="22.926" stroke="#532C7F" d="M26.1645 7.03521C25.8921 6.52691 25.487 6.10196 24.9923 5.80553C23.4604 4.88678 21.415 5.42647 20.5588 7.0331C20.1507 7.80232 19.2431 8.20099 18.3782 7.93873C15.9089 7.18982 13.6898 9.55731 14.4025 11.8715C14.6753 12.7119 14.3153 13.6522 13.5083 14.0825C11.5651 15.1196 11.3155 17.7161 12.769 19.147M34.7347 17.8606C35.167 16.4857 34.6624 14.854 33.216 14.0836C32.4466 13.6757 32.0478 12.7682 32.3101 11.9037C33.0308 9.52903 30.8667 7.3863 28.6408 7.86068"></path>
<path stroke-linejoin="round" stroke-linecap="round" stroke-miterlimit="22.926" stroke="#532C7F" d="M7.62695 12.3438C8.81022 12.3438 9.77538 11.3786 9.77538 10.1953C9.77538 9.01204 8.81022 8.04689 7.62695 8.04689C6.44367 8.04689 5.47852 9.01204 5.47852 10.1953C5.47852 11.3786 6.44367 12.3438 7.62695 12.3438Z"></path>
<path stroke-linejoin="round" stroke-linecap="round" stroke-miterlimit="22.926" stroke="#532C7F" d="M36.0937 9.0625C36.2945 8.31316 36.689 7.62987 37.2376 7.08132C37.7861 6.53277 38.4694 6.13828 39.2187 5.93751C38.4694 5.73674 37.7861 5.34225 37.2376 4.7937C36.689 4.24514 36.2945 3.56186 36.0937 2.81252C35.893 3.56186 35.4985 4.24514 34.9499 4.7937C34.4014 5.34225 33.7181 5.73674 32.9688 5.93751C33.7181 6.13828 34.4014 6.53277 34.9499 7.08132C35.4985 7.62987 35.893 8.31316 36.0937 9.0625Z"></path>
<path stroke-linejoin="round" stroke-linecap="round" stroke-miterlimit="22.926" stroke="#532C7F" d="M15.7695 21.9434C15.9703 21.194 16.3648 20.5107 16.9133 19.9622C17.4619 19.4136 18.1452 19.0191 18.8945 18.8184C18.1452 18.6176 17.4619 18.2231 16.9133 17.6746C16.3648 17.126 15.9703 16.4427 15.7695 15.6934C15.5687 16.4427 15.1743 17.126 14.6257 17.6746C14.0772 18.2231 13.3939 18.6176 12.6445 18.8184C13.3939 19.0191 14.0772 19.4136 14.6257 19.9622C15.1743 20.5107 15.5687 21.194 15.7695 21.9434Z"></path>
<path stroke-linejoin="round" stroke-linecap="round" stroke-miterlimit="22.926" stroke="#532C7F" d="M26.9238 11.4062C28.1071 11.4062 29.0723 10.4411 29.0723 9.25782C29.0723 8.07446 28.1071 7.10939 26.9238 7.10939C25.7405 7.10939 24.7754 8.07446 24.7754 9.25782C24.7754 10.4411 25.7405 11.4062 26.9238 11.4062Z"></path>
<path stroke-linejoin="round" stroke-linecap="round" stroke-miterlimit="22.926" stroke="#532C7F" d="M20.1705 12.4272H20.1699"></path>
<path stroke-linejoin="round" stroke-linecap="round" stroke-miterlimit="22.926" stroke="#532C7F" d="M24.3892 14.146H24.3887"></path>
</svg>
