<svg xmlns="http://www.w3.org/2000/svg" fill="none" viewBox="0 0 41 40" height="40" width="41">
<path fill="#532C7F" d="M36.5005 20.5518H26.8614C26.7666 20.5518 26.6733 20.5763 26.5907 20.6229C26.508 20.6694 26.4388 20.7366 26.3897 20.8177C26.3405 20.8988 26.3131 20.9913 26.3101 21.0861C26.3071 21.1809 26.3286 21.2749 26.3726 21.359C26.8979 22.3682 27.1544 23.4957 27.1172 24.6329C27.08 25.77 26.7504 26.8784 26.1602 27.8511C25.5699 28.8238 24.739 29.6279 23.7475 30.186C22.7561 30.7441 21.6375 31.0373 20.4997 31.0373C19.362 31.0373 18.2434 30.7441 17.252 30.186C16.2605 29.6279 15.4296 28.8238 14.8393 27.8511C14.2491 26.8784 13.9195 25.77 13.8823 24.6329C13.8451 23.4957 14.1015 22.3682 14.6269 21.359C14.6708 21.2749 14.6923 21.1809 14.6894 21.0861C14.6864 20.9913 14.659 20.8988 14.6098 20.8177C14.5607 20.7366 14.4915 20.6694 14.4088 20.6229C14.3262 20.5763 14.2329 20.5518 14.1381 20.5518H4.49901C4.35268 20.5518 4.21234 20.6099 4.10887 20.7134C4.0054 20.8168 3.94727 20.9572 3.94727 21.1035C3.94727 21.2498 4.0054 21.3902 4.10887 21.4937C4.21234 21.5971 4.35268 21.6553 4.49901 21.6553H13.2856C12.8379 22.8251 12.6813 24.0862 12.8295 25.33C12.9776 26.5737 13.426 27.7628 14.1359 28.7947C14.8459 29.8267 15.7961 30.6705 16.9048 31.2534C18.0134 31.8363 19.2472 32.1409 20.4997 32.1409C21.7523 32.1409 22.9861 31.8363 24.0947 31.2534C25.2034 30.6705 26.1536 29.8267 26.8636 28.7947C27.5735 27.7628 28.0219 26.5737 28.17 25.33C28.3182 24.0862 28.1616 22.8251 27.7139 21.6553H36.5005C36.6468 21.6553 36.7872 21.5971 36.8906 21.4937C36.9941 21.3902 37.0522 21.2498 37.0522 21.1035C37.0522 20.9572 36.9941 20.8168 36.8906 20.7134C36.7872 20.6099 36.6468 20.5518 36.5005 20.5518Z"></path>
<path fill="#532C7F" d="M23.6814 6.18159C22.045 8.07795 19.8826 11.5496 18.8746 17.322C18.601 18.7081 17.9202 19.9812 16.9192 20.9784C16.2707 21.6537 15.8263 22.4986 15.6374 23.4156C15.4484 24.3327 15.5225 25.2844 15.8512 26.1611C16.1799 27.0378 16.7497 27.8037 17.495 28.3705C18.2402 28.9372 19.1305 29.2818 20.0631 29.3643C20.9958 29.4468 21.9327 29.264 22.7659 28.837C23.5991 28.4099 24.2946 27.756 24.7722 26.9506C25.2497 26.1453 25.4899 25.2213 25.4649 24.2854C25.4399 23.3495 25.1508 22.4396 24.631 21.6609C23.4934 20.0556 22.985 18.0884 23.2025 16.1329C23.5292 13.1126 24.3086 10.1585 25.5144 7.37006C25.6256 7.12904 25.6462 6.85602 25.5724 6.60104C25.4987 6.34606 25.3355 6.12621 25.1127 5.9818C24.89 5.8374 24.6227 5.7781 24.3598 5.8148C24.097 5.85149 23.8561 5.98171 23.6814 6.18159ZM22.1112 15.9889C21.8676 18.2083 22.436 20.4407 23.7112 22.2734C24.1155 22.879 24.3404 23.5866 24.3598 24.3145C24.3793 25.0424 24.1925 25.761 23.8212 26.3874C23.4498 27.0138 22.9089 27.5224 22.2609 27.8546C21.6129 28.1868 20.8842 28.3291 20.1589 28.2649C19.4335 28.2008 18.7411 27.933 18.1614 27.4922C17.5817 27.0515 17.1385 26.4559 16.8827 25.7741C16.627 25.0923 16.5692 24.3521 16.716 23.6389C16.8629 22.9256 17.2084 22.2685 17.7126 21.7431C18.8664 20.5879 19.6489 19.1145 19.9599 17.5118C20.926 11.9876 22.9708 8.69315 24.5151 6.90217C23.2618 9.7931 22.4514 12.8564 22.1112 15.9889Z"></path>
<path fill="#532C7F" d="M7.25878 24.9658C7.5635 24.9658 7.81053 24.7188 7.81053 24.4141C7.81053 24.1093 7.5635 23.8623 7.25878 23.8623C6.95406 23.8623 6.70703 24.1093 6.70703 24.4141C6.70703 24.7188 6.95406 24.9658 7.25878 24.9658Z"></path>
<path fill="#532C7F" d="M10.5693 24.9658C10.8741 24.9658 11.1211 24.7188 11.1211 24.4141C11.1211 24.1093 10.8741 23.8623 10.5693 23.8623C10.2646 23.8623 10.0176 24.1093 10.0176 24.4141C10.0176 24.7188 10.2646 24.9658 10.5693 24.9658Z"></path>
<path fill="#532C7F" d="M5.60253 27.1723C5.90725 27.1723 6.15428 26.9253 6.15428 26.6206C6.15428 26.3159 5.90725 26.0688 5.60253 26.0688C5.29781 26.0688 5.05078 26.3159 5.05078 26.6206C5.05078 26.9253 5.29781 27.1723 5.60253 27.1723Z"></path>
<path fill="#532C7F" d="M8.91308 27.1723C9.2178 27.1723 9.46483 26.9253 9.46483 26.6206C9.46483 26.3159 9.2178 26.0688 8.91308 26.0688C8.60835 26.0688 8.36133 26.3159 8.36133 26.6206C8.36133 26.9253 8.60835 27.1723 8.91308 27.1723Z"></path>
<path fill="#532C7F" d="M7.25878 29.3799C7.5635 29.3799 7.81053 29.1328 7.81053 28.8281C7.81053 28.5234 7.5635 28.2764 7.25878 28.2764C6.95406 28.2764 6.70703 28.5234 6.70703 28.8281C6.70703 29.1328 6.95406 29.3799 7.25878 29.3799Z"></path>
<path fill="#532C7F" d="M10.5693 29.3799C10.8741 29.3799 11.1211 29.1328 11.1211 28.8281C11.1211 28.5234 10.8741 28.2764 10.5693 28.2764C10.2646 28.2764 10.0176 28.5234 10.0176 28.8281C10.0176 29.1328 10.2646 29.3799 10.5693 29.3799Z"></path>
<path fill="#532C7F" d="M5.60253 31.5869C5.90725 31.5869 6.15428 31.3399 6.15428 31.0351C6.15428 30.7304 5.90725 30.4834 5.60253 30.4834C5.29781 30.4834 5.05078 30.7304 5.05078 31.0351C5.05078 31.3399 5.29781 31.5869 5.60253 31.5869Z"></path>
<path fill="#532C7F" d="M8.91308 31.5869C9.2178 31.5869 9.46483 31.3399 9.46483 31.0351C9.46483 30.7304 9.2178 30.4834 8.91308 30.4834C8.60835 30.4834 8.36133 30.7304 8.36133 31.0351C8.36133 31.3399 8.60835 31.5869 8.91308 31.5869Z"></path>
<path fill="#532C7F" d="M12.2236 31.5869C12.5283 31.5869 12.7754 31.3399 12.7754 31.0351C12.7754 30.7304 12.5283 30.4834 12.2236 30.4834C11.9189 30.4834 11.6719 30.7304 11.6719 31.0351C11.6719 31.3399 11.9189 31.5869 12.2236 31.5869Z"></path>
<path fill="#532C7F" d="M7.25878 33.7934C7.5635 33.7934 7.81053 33.5464 7.81053 33.2417C7.81053 32.937 7.5635 32.6899 7.25878 32.6899C6.95406 32.6899 6.70703 32.937 6.70703 33.2417C6.70703 33.5464 6.95406 33.7934 7.25878 33.7934Z"></path>
<path fill="#532C7F" d="M10.5693 33.7934C10.8741 33.7934 11.1211 33.5464 11.1211 33.2417C11.1211 32.937 10.8741 32.6899 10.5693 32.6899C10.2646 32.6899 10.0176 32.937 10.0176 33.2417C10.0176 33.5464 10.2646 33.7934 10.5693 33.7934Z"></path>
<path fill="#532C7F" d="M13.8799 33.7934C14.1846 33.7934 14.4316 33.5464 14.4316 33.2417C14.4316 32.937 14.1846 32.6899 13.8799 32.6899C13.5752 32.6899 13.3281 32.937 13.3281 33.2417C13.3281 33.5464 13.5752 33.7934 13.8799 33.7934Z"></path>
<path fill="#532C7F" d="M17.1904 33.7934C17.4951 33.7934 17.7422 33.5464 17.7422 33.2417C17.7422 32.937 17.4951 32.6899 17.1904 32.6899C16.8857 32.6899 16.6387 32.937 16.6387 33.2417C16.6387 33.5464 16.8857 33.7934 17.1904 33.7934Z"></path>
<path fill="#532C7F" d="M20.501 33.7934C20.8057 33.7934 21.0527 33.5464 21.0527 33.2417C21.0527 32.937 20.8057 32.6899 20.501 32.6899C20.1962 32.6899 19.9492 32.937 19.9492 33.2417C19.9492 33.5464 20.1962 33.7934 20.501 33.7934Z"></path>
<path fill="#532C7F" d="M33.7432 24.9658C34.0479 24.9658 34.2949 24.7188 34.2949 24.4141C34.2949 24.1093 34.0479 23.8623 33.7432 23.8623C33.4384 23.8623 33.1914 24.1093 33.1914 24.4141C33.1914 24.7188 33.4384 24.9658 33.7432 24.9658Z"></path>
<path fill="#532C7F" d="M30.4326 24.9658C30.7373 24.9658 30.9844 24.7188 30.9844 24.4141C30.9844 24.1093 30.7373 23.8623 30.4326 23.8623C30.1279 23.8623 29.8809 24.1093 29.8809 24.4141C29.8809 24.7188 30.1279 24.9658 30.4326 24.9658Z"></path>
<path fill="#532C7F" d="M35.3975 27.1723C35.7022 27.1723 35.9492 26.9253 35.9492 26.6206C35.9492 26.3159 35.7022 26.0688 35.3975 26.0688C35.0927 26.0688 34.8457 26.3159 34.8457 26.6206C34.8457 26.9253 35.0927 27.1723 35.3975 27.1723Z"></path>
<path fill="#532C7F" d="M32.0869 27.1723C32.3916 27.1723 32.6387 26.9253 32.6387 26.6206C32.6387 26.3159 32.3916 26.0688 32.0869 26.0688C31.7822 26.0688 31.5352 26.3159 31.5352 26.6206C31.5352 26.9253 31.7822 27.1723 32.0869 27.1723Z"></path>
<path fill="#532C7F" d="M33.7432 29.3799C34.0479 29.3799 34.2949 29.1328 34.2949 28.8281C34.2949 28.5234 34.0479 28.2764 33.7432 28.2764C33.4384 28.2764 33.1914 28.5234 33.1914 28.8281C33.1914 29.1328 33.4384 29.3799 33.7432 29.3799Z"></path>
<path fill="#532C7F" d="M30.4326 29.3799C30.7373 29.3799 30.9844 29.1328 30.9844 28.8281C30.9844 28.5234 30.7373 28.2764 30.4326 28.2764C30.1279 28.2764 29.8809 28.5234 29.8809 28.8281C29.8809 29.1328 30.1279 29.3799 30.4326 29.3799Z"></path>
<path fill="#532C7F" d="M35.3975 31.5869C35.7022 31.5869 35.9492 31.3399 35.9492 31.0351C35.9492 30.7304 35.7022 30.4834 35.3975 30.4834C35.0927 30.4834 34.8457 30.7304 34.8457 31.0351C34.8457 31.3399 35.0927 31.5869 35.3975 31.5869Z"></path>
<path fill="#532C7F" d="M32.0869 31.5869C32.3916 31.5869 32.6387 31.3399 32.6387 31.0351C32.6387 30.7304 32.3916 30.4834 32.0869 30.4834C31.7822 30.4834 31.5352 30.7304 31.5352 31.0351C31.5352 31.3399 31.7822 31.5869 32.0869 31.5869Z"></path>
<path fill="#532C7F" d="M28.7764 31.5869C29.0811 31.5869 29.3281 31.3399 29.3281 31.0351C29.3281 30.7304 29.0811 30.4834 28.7764 30.4834C28.4716 30.4834 28.2246 30.7304 28.2246 31.0351C28.2246 31.3399 28.4716 31.5869 28.7764 31.5869Z"></path>
<path fill="#532C7F" d="M33.7432 33.7934C34.0479 33.7934 34.2949 33.5464 34.2949 33.2417C34.2949 32.937 34.0479 32.6899 33.7432 32.6899C33.4384 32.6899 33.1914 32.937 33.1914 33.2417C33.1914 33.5464 33.4384 33.7934 33.7432 33.7934Z"></path>
<path fill="#532C7F" d="M30.4326 33.7934C30.7373 33.7934 30.9844 33.5464 30.9844 33.2417C30.9844 32.937 30.7373 32.6899 30.4326 32.6899C30.1279 32.6899 29.8809 32.937 29.8809 33.2417C29.8809 33.5464 30.1279 33.7934 30.4326 33.7934Z"></path>
<path fill="#532C7F" d="M27.1221 33.7934C27.4268 33.7934 27.6738 33.5464 27.6738 33.2417C27.6738 32.937 27.4268 32.6899 27.1221 32.6899C26.8173 32.6899 26.5703 32.937 26.5703 33.2417C26.5703 33.5464 26.8173 33.7934 27.1221 33.7934Z"></path>
<path fill="#532C7F" d="M23.8115 33.7934C24.1162 33.7934 24.3633 33.5464 24.3633 33.2417C24.3633 32.937 24.1162 32.6899 23.8115 32.6899C23.5068 32.6899 23.2598 32.937 23.2598 33.2417C23.2598 33.5464 23.5068 33.7934 23.8115 33.7934Z"></path>
<path fill="#532C7F" d="M5.60253 36.001C5.90725 36.001 6.15428 35.7539 6.15428 35.4492C6.15428 35.1445 5.90725 34.8975 5.60253 34.8975C5.29781 34.8975 5.05078 35.1445 5.05078 35.4492C5.05078 35.7539 5.29781 36.001 5.60253 36.001Z"></path>
<path fill="#532C7F" d="M8.91308 36.001C9.2178 36.001 9.46483 35.7539 9.46483 35.4492C9.46483 35.1445 9.2178 34.8975 8.91308 34.8975C8.60835 34.8975 8.36133 35.1445 8.36133 35.4492C8.36133 35.7539 8.60835 36.001 8.91308 36.001Z"></path>
<path fill="#532C7F" d="M12.2236 36.001C12.5283 36.001 12.7754 35.7539 12.7754 35.4492C12.7754 35.1445 12.5283 34.8975 12.2236 34.8975C11.9189 34.8975 11.6719 35.1445 11.6719 35.4492C11.6719 35.7539 11.9189 36.001 12.2236 36.001Z"></path>
<path fill="#532C7F" d="M15.5342 36.001C15.8389 36.001 16.0859 35.7539 16.0859 35.4492C16.0859 35.1445 15.8389 34.8975 15.5342 34.8975C15.2294 34.8975 14.9824 35.1445 14.9824 35.4492C14.9824 35.7539 15.2294 36.001 15.5342 36.001Z"></path>
<path fill="#532C7F" d="M18.8447 36.001C19.1494 36.001 19.3965 35.7539 19.3965 35.4492C19.3965 35.1445 19.1494 34.8975 18.8447 34.8975C18.54 34.8975 18.293 35.1445 18.293 35.4492C18.293 35.7539 18.54 36.001 18.8447 36.001Z"></path>
<path fill="#532C7F" d="M32.0869 36.001C32.3916 36.001 32.6387 35.7539 32.6387 35.4492C32.6387 35.1445 32.3916 34.8975 32.0869 34.8975C31.7822 34.8975 31.5352 35.1445 31.5352 35.4492C31.5352 35.7539 31.7822 36.001 32.0869 36.001Z"></path>
<path fill="#532C7F" d="M35.3975 36.001C35.7022 36.001 35.9492 35.7539 35.9492 35.4492C35.9492 35.1445 35.7022 34.8975 35.3975 34.8975C35.0927 34.8975 34.8457 35.1445 34.8457 35.4492C34.8457 35.7539 35.0927 36.001 35.3975 36.001Z"></path>
<path fill="#532C7F" d="M28.7764 36.001C29.0811 36.001 29.3281 35.7539 29.3281 35.4492C29.3281 35.1445 29.0811 34.8975 28.7764 34.8975C28.4716 34.8975 28.2246 35.1445 28.2246 35.4492C28.2246 35.7539 28.4716 36.001 28.7764 36.001Z"></path>
<path fill="#532C7F" d="M25.4658 36.001C25.7705 36.001 26.0176 35.7539 26.0176 35.4492C26.0176 35.1445 25.7705 34.8975 25.4658 34.8975C25.1611 34.8975 24.9141 35.1445 24.9141 35.4492C24.9141 35.7539 25.1611 36.001 25.4658 36.001Z"></path>
<path fill="#532C7F" d="M22.1553 36.001C22.46 36.001 22.707 35.7539 22.707 35.4492C22.707 35.1445 22.46 34.8975 22.1553 34.8975C21.8505 34.8975 21.6035 35.1445 21.6035 35.4492C21.6035 35.7539 21.8505 36.001 22.1553 36.001Z"></path>
<path fill="#532C7F" d="M10.4731 4.7369C9.17037 6.43077 6.7366 10.4497 6.7366 12.5094C6.72951 13.2003 6.85946 13.8858 7.11896 14.5262C7.37846 15.1666 7.76235 15.7492 8.24842 16.2403C8.7345 16.7314 9.31312 17.1212 9.95081 17.3873C10.5885 17.6534 11.2726 17.7904 11.9636 17.7904C12.6546 17.7904 13.3387 17.6534 13.9764 17.3873C14.6141 17.1212 15.1927 16.7314 15.6788 16.2403C16.1649 15.7492 16.5487 15.1666 16.8082 14.5262C17.0677 13.8858 17.1977 13.2003 17.1906 12.5094C17.1906 10.4497 14.7568 6.43077 13.4542 4.7369C13.2791 4.50777 13.0535 4.32209 12.795 4.19428C12.5365 4.06648 12.252 4 11.9636 4C11.6752 4 11.3907 4.06648 11.1322 4.19428C10.8737 4.32209 10.6481 4.50777 10.4731 4.7369ZM11.9633 16.6894C10.8626 16.6807 9.81034 16.2357 9.03735 15.452C8.26436 14.6684 7.83378 13.6101 7.8401 12.5094C7.8401 10.9358 9.88158 7.31412 11.3481 5.40948C11.4202 5.31448 11.5132 5.23745 11.62 5.18442C11.7268 5.13139 11.8444 5.10379 11.9636 5.10379C12.0828 5.10379 12.2004 5.13139 12.3072 5.18442C12.414 5.23745 12.507 5.31448 12.5791 5.40948C14.0456 7.31412 16.0871 10.9358 16.0871 12.5094C16.0933 13.6102 15.6626 14.6684 14.8895 15.4521C14.1164 16.2357 13.0641 16.6807 11.9633 16.6894Z"></path>
<path fill="#532C7F" d="M11.43 14.0755C11.1946 14.0406 10.9704 13.9519 10.7748 13.8164C10.5791 13.681 10.4172 13.5023 10.3017 13.2943C10.1167 12.6903 10.1714 12.0382 10.4545 11.4735C10.5128 11.3431 10.5183 11.1952 10.4699 11.0609C10.4214 10.9266 10.3227 10.8163 10.1946 10.7532C10.0665 10.6901 9.91894 10.6791 9.78291 10.7226C9.64688 10.7661 9.53301 10.8606 9.46523 10.9863C9.43433 11.0475 8.72588 12.5102 9.2997 13.7528C9.48084 14.1128 9.74304 14.4259 10.0657 14.6675C10.3883 14.909 10.7626 15.0724 11.1591 15.1448C11.301 15.1808 11.4513 15.1588 11.577 15.0839C11.7027 15.009 11.7936 14.8872 11.8295 14.7454C11.8654 14.6035 11.8435 14.4532 11.7686 14.3274C11.6937 14.2017 11.5719 14.1115 11.43 14.0755ZM28.3864 13.7693C28.4898 13.8728 28.6302 13.9309 28.7765 13.9309C28.9228 13.9309 29.0631 13.8728 29.1665 13.7693L29.7183 13.2176C29.8188 13.1135 29.8744 12.9741 29.8732 12.8295C29.8719 12.6848 29.8139 12.5464 29.7116 12.4441C29.6093 12.3418 29.4709 12.2838 29.3262 12.2825C29.1816 12.2813 29.0422 12.3369 28.9381 12.4374L28.3864 12.9891C28.2829 13.0926 28.2248 13.2329 28.2248 13.3792C28.2248 13.5255 28.2829 13.6658 28.3864 13.7693ZM26.1794 15.1961L25.6276 15.7479C25.5271 15.852 25.4715 15.9913 25.4728 16.136C25.474 16.2807 25.532 16.419 25.6343 16.5213C25.7366 16.6236 25.875 16.6817 26.0197 16.6829C26.1644 16.6842 26.3037 16.6286 26.4078 16.5281L26.9595 15.9763C27.0601 15.8723 27.1157 15.7329 27.1144 15.5882C27.1132 15.4435 27.0551 15.3052 26.9528 15.2029C26.8505 15.1006 26.7121 15.0425 26.5675 15.0413C26.4228 15.04 26.2834 15.0956 26.1794 15.1961ZM28.3864 15.9763C28.9712 16.5617 29.0413 16.6897 29.3282 16.6897C29.4373 16.6897 29.544 16.6573 29.6347 16.5967C29.7254 16.5361 29.7961 16.4499 29.8378 16.3491C29.8796 16.2483 29.8905 16.1374 29.8692 16.0304C29.848 15.9234 29.7954 15.8251 29.7183 15.7479L29.1665 15.1961C29.0625 15.0956 28.9231 15.04 28.7784 15.0413C28.6338 15.0425 28.4954 15.1006 28.3931 15.2029C28.2908 15.3052 28.2328 15.4435 28.2315 15.5882C28.2303 15.7329 28.2859 15.8723 28.3864 15.9763ZM26.9595 12.9891L26.4078 12.4374C26.3037 12.3369 26.1644 12.2813 26.0197 12.2825C25.875 12.2838 25.7366 12.3418 25.6343 12.4441C25.532 12.5464 25.474 12.6848 25.4728 12.8295C25.4715 12.9741 25.5271 13.1135 25.6276 13.2176L26.1794 13.7693C26.2834 13.8698 26.4228 13.9254 26.5675 13.9242C26.7121 13.9229 26.8505 13.8649 26.9528 13.7626C27.0551 13.6603 27.1132 13.5219 27.1144 13.3772C27.1157 13.2326 27.0601 13.0932 26.9595 12.9891ZM32.087 7.86174C32.3794 7.86174 32.4594 7.71773 33.0288 7.14832C33.0815 7.09743 33.1235 7.03654 33.1524 6.96923C33.1814 6.90191 33.1966 6.82951 33.1972 6.75625C33.1978 6.68299 33.1839 6.61034 33.1561 6.54253C33.1284 6.47472 33.0874 6.41312 33.0356 6.36131C32.9838 6.30951 32.9222 6.26854 32.8544 6.24079C32.7866 6.21305 32.714 6.19909 32.6407 6.19973C32.5674 6.20036 32.495 6.21559 32.4277 6.2445C32.3604 6.27342 32.2995 6.31545 32.2486 6.36815L31.6969 6.9199C31.6197 6.99706 31.5672 7.09536 31.5459 7.20238C31.5246 7.30939 31.5356 7.42031 31.5773 7.52112C31.6191 7.62192 31.6898 7.70808 31.7805 7.76871C31.8712 7.82934 31.9778 7.86171 32.087 7.86174ZM28.9381 10.4588C29.0416 10.5623 29.1819 10.6204 29.3282 10.6204C29.4745 10.6204 29.6148 10.5623 29.7183 10.4588L30.27 9.90707C30.3706 9.80301 30.4262 9.66364 30.4249 9.51897C30.4237 9.3743 30.3656 9.23592 30.2633 9.13362C30.161 9.03132 30.0226 8.97329 29.878 8.97203C29.7333 8.97078 29.5939 9.02639 29.4899 9.1269L28.9381 9.67865C28.8347 9.78211 28.7766 9.92243 28.7766 10.0687C28.7766 10.215 28.8347 10.3554 28.9381 10.4588ZM31.6969 9.90707C32.2817 10.4925 32.3518 10.6205 32.6387 10.6205C32.7478 10.6205 32.8545 10.5881 32.9452 10.5275C33.0359 10.4668 33.1066 10.3807 33.1483 10.2799C33.1901 10.1791 33.201 10.0681 33.1797 9.96112C33.1585 9.85411 33.1059 9.75581 33.0288 9.67865L32.477 9.1269C32.373 9.02639 32.2336 8.97078 32.0889 8.97203C31.9443 8.97329 31.8059 9.03132 31.7036 9.13362C31.6013 9.23592 31.5433 9.3743 31.542 9.51897C31.5408 9.66364 31.5964 9.80301 31.6969 9.90707ZM29.4899 7.70007C29.5939 7.80058 29.7333 7.85619 29.878 7.85493C30.0226 7.85368 30.161 7.79565 30.2633 7.69335C30.3656 7.59105 30.4237 7.45267 30.4249 7.308C30.4262 7.16333 30.3706 7.02396 30.27 6.9199L29.7183 6.36815C29.6142 6.26764 29.4749 6.21203 29.3302 6.21329C29.1855 6.21454 29.0471 6.27257 28.9448 6.37487C28.8425 6.47717 28.7845 6.61556 28.7833 6.76022C28.782 6.90489 28.8376 7.04426 28.9381 7.14832L29.4899 7.70007Z"></path>
</svg>
