<svg viewBox="0 0 39.483 42.078" height="42.078" width="39.483" xmlns="http://www.w3.org/2000/svg">
  <g transform="translate(-0.245 4.024)" id="natural-icon-vector">
    <path stroke-width="1" stroke-miterlimit="10" stroke-linejoin="round" stroke-linecap="round" stroke="#532c7f" fill="none" d="M8.085,36.247a11.875,11.875,0,0,0,7.277.664,9.645,9.645,0,0,1-.544-5.491A11.986,11.986,0,0,0,3.91,17.151a11.981,11.981,0,0,0,4.175,19.1Z" data-name="Path 5" id="Path_5"></path>
    <path stroke-width="1" stroke-miterlimit="10" stroke-linejoin="round" stroke-linecap="round" stroke="#532c7f" fill="none" d="M5.064,13.169A16.709,16.709,0,0,0,9,31.969" data-name="Path 6" id="Path_6"></path>
    <path stroke-width="1" stroke-miterlimit="10" stroke-linejoin="round" stroke-linecap="round" stroke="#532c7f" fill="none" d="M7.6,24.119,3.967,22.75" data-name="Path 7" id="Path_7"></path>
    <path stroke-width="1" stroke-miterlimit="10" stroke-linejoin="round" stroke-linecap="round" stroke="#532c7f" fill="none" d="M5.75,27.777l-.524,2.6" data-name="Path 8" id="Path_8"></path>
    <g data-name="Group 1" id="Group_1">
      <path stroke-width="1" stroke-miterlimit="10" stroke-linejoin="round" stroke-linecap="round" stroke="#532c7f" fill="none" d="M39.131,23.343a11.873,11.873,0,0,0-3.063-6.634,9.645,9.645,0,0,1-4.483,3.217,11.986,11.986,0,0,0-6.9,16.581,11.981,11.981,0,0,0,14.45-13.164Z" data-name="Path 9" id="Path_9"></path>
      <path stroke-width="1" stroke-miterlimit="10" stroke-linejoin="round" stroke-linecap="round" stroke="#532c7f" fill="none" d="M20.654,37.5A16.709,16.709,0,0,0,34.967,24.69" data-name="Path 10" id="Path_10"></path>
      <path stroke-width="1" stroke-miterlimit="10" stroke-linejoin="round" stroke-linecap="round" stroke="#532c7f" fill="none" d="M28.869,29.828l.631,3.829" data-name="Path 11" id="Path_11"></path>
      <path stroke-width="1" stroke-miterlimit="10" stroke-linejoin="round" stroke-linecap="round" stroke="#532c7f" fill="none" d="M32.961,29.6l2.511-.845" data-name="Path 12" id="Path_12"></path>
    </g>
    <g transform="translate(10.75 48.798) rotate(-119)" data-name="Group 2" id="Group_2">
      <path stroke-width="1" stroke-miterlimit="10" stroke-linejoin="round" stroke-linecap="round" stroke="#532c7f" fill="none" d="M39.131,23.343a11.873,11.873,0,0,0-3.063-6.634,9.645,9.645,0,0,1-4.483,3.217,11.986,11.986,0,0,0-6.9,16.581,11.981,11.981,0,0,0,14.45-13.164Z" data-name="Path 9" id="Path_9-2"></path>
      <path stroke-width="1" stroke-miterlimit="10" stroke-linejoin="round" stroke-linecap="round" stroke="#532c7f" fill="none" d="M20.654,37.5A16.709,16.709,0,0,0,34.967,24.69" data-name="Path 10" id="Path_10-2"></path>
      <path stroke-width="1" stroke-miterlimit="10" stroke-linejoin="round" stroke-linecap="round" stroke="#532c7f" fill="none" d="M28.869,29.828l.631,3.829" data-name="Path 11" id="Path_11-2"></path>
      <path stroke-width="1" stroke-miterlimit="10" stroke-linejoin="round" stroke-linecap="round" stroke="#532c7f" fill="none" d="M32.961,29.6l2.511-.845" data-name="Path 12" id="Path_12-2"></path>
    </g>
  </g>
</svg>
