<svg xmlns="http://www.w3.org/2000/svg" fill="none" viewBox="0 0 40 40" height="40" width="40">
<path fill="#532C7F" d="M24.9186 24.1786C24.9186 24.1786 26.8471 23.7987 35.171 24.147L35.6267 24.2369C36.3679 24.3831 36.8365 25.1321 36.5832 25.8438V25.8564C36.4339 26.287 36.2597 26.7048 36.0731 27.1164L36.073 27.1165C36.0419 27.1925 36.0108 27.2684 35.9735 27.3443C35.7931 27.7369 35.594 28.1231 35.3887 28.5029L35.2581 28.7309C35.0403 29.1171 34.8102 29.5033 34.5613 29.8705C34.5551 29.8832 34.5427 29.8958 34.5302 29.9148C34.2689 30.3011 34.0014 30.6683 33.7153 31.0292C33.6966 31.0608 33.6717 31.0861 33.653 31.1115C33.3544 31.485 33.0496 31.8396 32.7261 32.1878C32.7074 32.2005 32.695 32.2195 32.6825 32.2321C30.0323 35.0686 26.505 37.0503 22.5421 37.7341C22.5235 37.7404 22.5048 37.7467 22.4861 37.7467C22.032 37.8227 21.5716 37.8797 21.105 37.924C21.0304 37.9304 20.962 37.943 20.8873 37.943C20.4269 37.9747 19.9604 38 19.4938 38C19.0272 38 18.5668 37.981 18.1065 37.943C18.038 37.9367 17.9696 37.924 17.9012 37.924C11.848 37.3859 6.64717 33.8403 3.74813 28.7625C3.71703 28.7119 3.68592 28.6549 3.65482 28.6042C3.43086 28.2117 3.22556 27.8065 3.03271 27.395C3.01404 27.3443 2.98916 27.3 2.97049 27.2493C2.79008 26.8505 2.62211 26.4453 2.46658 26.0337C2.44792 25.9894 2.42926 25.9514 2.41681 25.9071C2.164 25.2175 2.61701 24.4865 3.33737 24.3434L3.84767 24.2419C4.68752 24.2229 6.61607 24.185 6.86491 24.1786C8.48863 24.128 10.131 24.109 11.736 24.4192C12.5635 24.5838 13.1669 25.3119 13.1669 26.1793C13.1669 27.5279 13.3473 28.9082 13.8761 30.1554C14.5915 31.8522 16.1033 33.3464 17.9758 33.5427C20.5451 33.815 23.1145 32.5677 23.6495 29.8579C23.7366 29.4147 23.7552 29.0538 23.7552 28.8702C23.7552 28.2497 23.6744 27.6862 23.5499 27.186C23.494 26.9708 23.438 26.7618 23.3695 26.5719C23.1829 26.04 23.2576 25.4512 23.5562 24.9827C23.8672 24.5079 24.3649 24.2166 24.9186 24.1786Z"></path>
<path fill="#532C7F" d="M28.5 20C29.0028 16.9984 30.0018 16.4992 32 16C30.0018 15.4945 29.0028 15.0016 28.5 12C27.9972 15.0016 26.9982 15.5008 25 16C26.9982 16.5055 27.9972 16.9984 28.5 20Z"></path>
<path fill="#532C7F" d="M18.5494 30.9838C19.7037 31.1124 20.963 30.4698 21.0802 29.2152C21.1358 28.6338 20.9753 28.0402 20.6481 27.5567C20.4012 27.1895 20.0556 26.8896 19.9074 26.4674C19.858 26.3205 19.821 26.1614 19.821 25.9716C19.821 19.4723 22.858 12.973 25.679 8.29738C27.5123 5.26191 29.2531 2.99142 30 2C29.3642 2 16 13.3585 16 26.6081C16 26.9753 16.0247 27.2997 16.0556 27.6118C16.1667 28.6766 16.537 29.9006 17.4506 30.5738C17.7716 30.8125 18.1543 30.9471 18.5494 30.99V30.9838Z"></path>
<path fill="#532C7F" d="M15 15C15.5687 11.625 16.7125 11.0656 19 10.5C16.7125 9.94061 15.5687 9.375 15 6C14.4313 9.375 13.2875 9.93439 11 10.5C13.2875 11.0594 14.4313 11.625 15 15Z"></path>
<path fill="#532C7F" d="M9 22C9.42384 19.375 10.2848 18.9375 12 18.5C10.2848 18.0625 9.42384 17.625 9 15C8.57616 17.625 7.71523 18.0625 6 18.5C7.71523 18.9375 8.57616 19.375 9 22Z"></path>
</svg>
