<svg xmlns="http://www.w3.org/2000/svg" fill="none" viewBox="0 0 40 40" height="40" width="40">
<path stroke-linejoin="round" stroke-linecap="round" stroke-miterlimit="10" stroke="#532C7F" d="M15.4121 12.3638C15.4121 12.3638 26.2669 20.4278 26.2669 39.4142"></path>
<path stroke-linejoin="round" stroke-linecap="round" stroke-miterlimit="10" stroke="#532C7F" d="M16.8918 13.842L10.6096 7.55975M23.8371 15.8576L22.5808 8.22576M18.3022 25.348L11.4902 21.6847M6.44191 7.78061C6.98832 8.75678 7.63566 9.70623 8.39598 10.5287C10.9664 13.3088 14.7472 13.91 16.3553 14.0394C16.7739 14.0731 17.1229 13.724 17.0893 13.3055C16.9598 11.6974 16.3586 7.91655 13.5785 5.34616C10.9063 2.87561 6.89223 1.59803 4.98121 1.09983C4.47762 0.968499 4.0184 1.4278 4.14965 1.93139C4.3616 2.74451 4.71473 3.9385 5.24082 5.2478C5.45516 5.6856 5.99544 6.80509 6.44191 7.78061ZM25.8043 8.16623C25.1675 5.06272 22.9762 2.12209 21.8772 0.800062C21.5876 0.451624 21.0297 0.543499 20.8671 0.96639C20.2498 2.571 19.1168 6.05889 19.5085 9.20272C19.9161 12.4737 22.2856 14.8175 23.3575 15.725C23.6365 15.9612 24.0606 15.8914 24.2491 15.5782C24.9735 14.3749 26.4667 11.3953 25.8043 8.16623ZM10.3886 24.7147C7.65933 23.1059 5.58816 20.0794 4.69395 18.6111C4.45824 18.2241 4.72605 17.7262 5.17887 17.7094C6.89691 17.6458 10.5637 17.7051 13.4107 19.0951C16.3727 20.5413 17.8214 23.5429 18.3323 24.8511C18.4653 25.1916 18.2618 25.5701 17.9043 25.6469C16.5312 25.9422 13.2283 26.3884 10.3886 24.7147Z"></path>
<path stroke-linejoin="round" stroke-linecap="round" stroke-miterlimit="10" stroke="#532C7F" d="M23.8339 15.8575C23.7927 17.8768 23.5015 20.1661 22.5781 21.8121M29.9456 26.6436L32.0838 17.755M35.8742 16.3807C35.8677 13.5491 35.1725 10.807 34.7294 9.34488C34.5741 8.83238 33.9243 8.67605 33.5528 9.06183C32.1434 10.5257 29.3069 13.8036 28.2891 17.4073C27.2301 21.1568 28.7338 24.7979 29.4841 26.2787C29.6795 26.6642 30.1734 26.783 30.5227 26.5286C31.8387 25.5698 34.7456 23.0895 35.5755 19.3892C35.6874 18.7604 35.9037 17.2784 35.8742 16.3807Z"></path>
<path stroke-linejoin="round" stroke-linecap="round" stroke-miterlimit="10" stroke="#532C7F" d="M29.942 26.6425C28.9694 28.8228 27.6004 31.1821 25.8385 32.5504M18.3025 25.3457C20.0289 26.0005 21.9731 26.4973 23.6486 26.3282M25.69 35.4804L18.0742 34.1304M17.9751 37.3528C14.8797 36.678 11.9662 34.4507 10.6578 33.3355C10.313 33.0416 10.4116 32.4849 10.8365 32.3275C12.4485 31.73 15.9501 30.6399 19.0889 31.0702C22.3546 31.518 24.669 33.9162 25.5633 34.9991C25.7962 35.2811 25.7212 35.7042 25.4056 35.8889C24.1935 36.5984 21.1957 38.0549 17.9751 37.3528Z"></path>
</svg>
