<svg xmlns="http://www.w3.org/2000/svg" fill="none" viewBox="0 0 40 40" height="40" width="40">
<path fill="#532C7F" d="M8.5 28.0068C8.77614 28.0068 9 27.783 9 27.5068C9 27.2307 8.77614 27.0068 8.5 27.0068C8.22386 27.0068 8 27.2307 8 27.5068C8 27.783 8.22386 28.0068 8.5 28.0068Z"></path>
<path fill="#532C7F" d="M6.32926 8.60748C6.44026 8.7208 6.58579 8.77754 6.73118 8.77754C6.87657 8.77754 7.0221 8.7208 7.1331 8.60748L7.56899 8.16231L8.00487 8.60748C8.11587 8.7208 8.2614 8.77754 8.40679 8.77754C8.55218 8.77754 8.69771 8.7208 8.80871 8.60748C8.91529 8.49864 8.97515 8.35104 8.97515 8.19713C8.97515 8.04323 8.91529 7.89563 8.80871 7.78679L8.37268 7.34162L8.80871 6.89646C8.86301 6.84292 8.90631 6.77887 8.93611 6.70806C8.9659 6.63725 8.98158 6.56109 8.98224 6.48402C8.9829 6.40696 8.96851 6.33053 8.93993 6.2592C8.91135 6.18787 8.86913 6.12307 8.81576 6.06858C8.76238 6.01408 8.69891 5.97098 8.62904 5.9418C8.55918 5.91262 8.48432 5.89793 8.40884 5.8986C8.33335 5.89927 8.25876 5.91528 8.1894 5.9457C8.12004 5.97612 8.05731 6.02033 8.00487 6.07577L7.56899 6.52094L7.1331 6.07577C7.08066 6.02033 7.01793 5.97612 6.94857 5.9457C6.87921 5.91528 6.80462 5.89927 6.72913 5.8986C6.65365 5.89793 6.57879 5.91262 6.50893 5.9418C6.43906 5.97098 6.37559 6.01408 6.32221 6.06858C6.26884 6.12307 6.22663 6.18787 6.19804 6.2592C6.16946 6.33053 6.15507 6.40696 6.15573 6.48402C6.15639 6.56109 6.17207 6.63725 6.20186 6.70806C6.23166 6.77887 6.27496 6.84292 6.32926 6.89646L6.76529 7.34162L6.32926 7.78679C6.22269 7.89563 6.16282 8.04323 6.16282 8.19713C6.16282 8.35104 6.22269 8.49864 6.32926 8.60748ZM8.41091 21.4818C8.41091 20.5217 7.64587 19.7406 6.70546 19.7406C5.76504 19.7406 5 20.5217 5 21.4818C5 22.4419 5.76504 23.223 6.70546 23.223C7.64587 23.223 8.41091 22.4419 8.41091 21.4818ZM6.70546 22.0622C6.39208 22.0622 6.13697 21.8017 6.13697 21.4818C6.13697 21.1618 6.39208 20.9014 6.70546 20.9014C7.01883 20.9014 7.27394 21.1618 7.27394 21.4818C7.27394 21.8017 7.01883 22.0622 6.70546 22.0622ZM34.6393 22.1681L31.9306 19.0077V18.9405L32.2789 18.5852C32.9379 17.9126 32.9449 16.9219 32.617 16.331C32.5943 16.2898 32.5704 16.2409 32.5468 16.194C32.7124 16.108 33.9928 15.3597 33.9928 12.7758C33.9928 10.9578 32.7606 7.48846 24.5084 4.6799C17.4099 2.265 13.1417 7.12107 13.0996 7.16982C13.0677 7.20706 13.0406 7.24832 13.0189 7.29258L12.5331 8.28478C9.57659 9.90555 9.07561 13.1739 8.67142 15.8098C8.59169 16.329 8.51452 16.8329 8.42214 17.3051C7.85365 20.2074 12.9537 25.6111 14.2203 26.9C14.4231 28.8768 14.005 32.3964 12.8079 35.1784C12.7772 35.2483 12.7604 35.3237 12.7583 35.4002C12.7563 35.4768 12.7692 35.553 12.7961 35.6244C12.8231 35.6959 12.8637 35.7612 12.9154 35.8166C12.9672 35.872 13.0293 35.9163 13.0979 35.9472C13.1666 35.978 13.2406 35.9946 13.3156 35.9961C13.3906 35.9976 13.4651 35.9839 13.5349 35.9558C13.6047 35.9278 13.6684 35.8859 13.7222 35.8326C13.7761 35.7793 13.8191 35.7157 13.8488 35.6453C15.075 32.7951 15.5335 29.196 15.3739 27.0275C16.5889 26.1595 17.2649 24.6737 17.1762 23.1053C17.5505 23.3932 17.8927 23.6087 18.1835 23.788C18.4485 23.9515 18.6773 24.0927 18.8318 24.2346C19.082 24.4645 19.4236 24.584 19.7809 24.584C20.0104 24.584 20.2466 24.5347 20.4691 24.4336C21.0175 24.1841 21.3448 23.6811 21.3448 23.0881C21.3448 22.9341 21.2849 22.7865 21.1783 22.6776C21.0717 22.5688 20.9271 22.5076 20.7763 22.5076C20.6256 22.5076 20.481 22.5688 20.3743 22.6776C20.2677 22.7865 20.2078 22.9341 20.2078 23.0881C20.2078 23.1359 20.2078 23.2816 20.0066 23.3732C19.8356 23.4508 19.6499 23.4256 19.5925 23.372C19.358 23.1564 19.0862 22.9885 18.7717 22.7947C18.3672 22.5449 17.9087 22.2621 17.3985 21.7935C16.6743 21.128 17.0235 19.7924 17.4876 19.099C17.6723 18.8236 17.8429 18.7793 17.9554 18.7699C18.4616 18.7318 19.1642 19.3404 19.3675 19.5586C19.4708 19.6705 19.6134 19.7358 19.7639 19.7404C19.9144 19.745 20.0605 19.6884 20.1702 19.583C20.3195 19.4394 20.3662 19.2345 20.3275 19.0435C20.3589 19.0586 20.3907 19.068 20.4219 19.0862C21.3795 19.6458 21.9333 21.5067 22.0656 22.1767C22.0917 22.308 22.1614 22.4261 22.263 22.511C22.3646 22.5959 22.4918 22.6423 22.623 22.6423C22.7543 22.6422 22.8821 22.5957 22.9836 22.5107C23.0851 22.4257 23.1546 22.3075 23.1804 22.1761C23.4259 20.9232 24.0926 20.552 25.1019 19.99C26.0612 19.456 27.2548 18.7915 28.2269 17.1373C29.1068 15.6401 30.3186 15.6164 31.1333 15.8255C31.3025 16.2287 31.4641 16.6077 31.6277 16.903C31.6944 17.0234 31.7821 17.4508 31.4751 17.7643L31.0089 18.2402L30.0836 18.8106C30.0196 18.85 29.9639 18.9018 29.9196 18.9631C29.8753 19.0245 29.8432 19.0941 29.8253 19.1681C29.8074 19.2421 29.804 19.319 29.8152 19.3943C29.8264 19.4697 29.8521 19.542 29.8907 19.6072C29.9292 19.6726 29.9799 19.7295 30.04 19.7748C30.1 19.8201 30.1683 19.8528 30.2408 19.8712C30.3132 19.8895 30.3886 19.893 30.4624 19.8815C30.5362 19.87 30.6071 19.8438 30.671 19.8043L30.9532 19.6303L33.7836 22.9326C33.8729 23.037 33.8674 23.1503 33.8563 23.2083C33.8482 23.2518 33.8314 23.293 33.8069 23.3294C33.7824 23.3659 33.7507 23.3967 33.7139 23.42L32.2123 23.9318C32.0991 23.9704 32.0007 24.0443 31.931 24.1431C31.8612 24.242 31.8237 24.3607 31.8237 24.4825C31.8237 25.0962 32.0757 25.6614 32.5541 26.1244L31.9903 26.7003C31.9058 26.7864 31.8501 26.8975 31.831 27.0177C31.8118 27.138 31.8303 27.2613 31.8837 27.3703L32.2154 28.0473L31.8039 28.4674C31.7077 28.5651 31.6313 28.6813 31.5793 28.8094C31.5274 28.9374 31.5008 29.0747 31.5011 29.2133C31.5005 29.4563 31.5826 29.6919 31.7335 29.8799C31.7373 29.8882 31.741 29.8969 31.7448 29.9057L31.2952 30.901C30.3833 31.2254 27.992 31.3485 26.6026 31.3488H24.6801L23.9844 29.9284C23.9511 29.8601 23.9049 29.7993 23.8485 29.7493C23.7921 29.6993 23.7266 29.6612 23.6558 29.6371C23.5849 29.613 23.5101 29.6034 23.4356 29.6088C23.3611 29.6143 23.2884 29.6346 23.2217 29.6688C23.1549 29.7029 23.0953 29.75 23.0464 29.8076C22.9975 29.8652 22.9602 29.9321 22.9365 30.0044C22.9129 30.0767 22.9035 30.1531 22.9088 30.2291C22.9141 30.3051 22.934 30.3794 22.9674 30.4475L23.8201 32.1887C23.8674 32.2851 23.9399 32.3662 24.0298 32.4229C24.1196 32.4796 24.2231 32.5096 24.3286 32.5096H25.3071C25.0555 32.9697 24.8971 33.4427 24.8971 33.6704C24.8971 33.7327 24.9068 33.7947 24.9263 33.8541L25.4947 35.5953C25.5169 35.6694 25.5533 35.7384 25.602 35.7979C25.6506 35.8575 25.7104 35.9065 25.7779 35.9421C25.8454 35.9777 25.9192 35.9991 25.9949 36.0051C26.0707 36.0111 26.1468 36.0015 26.2189 35.977C26.2909 35.9524 26.3574 35.9134 26.4145 35.8622C26.4715 35.811 26.5179 35.7486 26.551 35.6788C26.584 35.609 26.603 35.5331 26.6069 35.4557C26.6108 35.3782 26.5994 35.3008 26.5735 35.2279L26.048 33.6187C26.129 33.3276 26.4896 32.6917 26.7015 32.5093C27.427 32.5059 30.8189 32.4572 31.9734 31.8679C32.0888 31.8089 32.1812 31.7116 32.2354 31.5919L32.8447 30.2429C32.8595 30.21 32.8714 30.1758 32.8799 30.1409C32.9627 29.8029 32.8022 29.4443 32.6993 29.2605C32.6916 29.2467 32.6834 29.2333 32.6746 29.2203L33.0721 28.8144C33.2256 28.658 33.3269 28.4561 33.3617 28.2375C33.3965 28.0189 33.3629 27.7946 33.2658 27.5966L33.084 27.2253L33.4626 26.8385C33.5591 26.7399 33.6347 26.6222 33.6847 26.4926C33.7347 26.3629 33.7581 26.2242 33.7533 26.085C33.7477 25.9432 33.7137 25.8041 33.6532 25.6764C33.5927 25.5487 33.5072 25.435 33.4018 25.3425C33.235 25.1959 33.115 25.0389 33.0427 24.8729L34.1214 24.5054C34.147 24.4965 34.1717 24.4861 34.1957 24.4739C34.3949 24.373 34.5686 24.2266 34.7032 24.046C34.8379 23.8654 34.9299 23.6555 34.9721 23.4327C35.0156 23.2099 35.0082 22.98 34.9504 22.7607C34.8927 22.5414 34.7862 22.3386 34.6393 22.1681ZM27.2519 16.5398C26.4389 17.9234 25.4824 18.4559 24.5575 18.9708C23.8923 19.3413 23.2129 19.7195 22.7143 20.3975C22.3739 19.545 21.8243 18.5692 20.9885 18.0801C20.4067 17.7398 19.7461 17.6819 19.0768 17.9036C18.7156 17.7141 18.2973 17.5784 17.868 17.6124C17.5004 17.6419 16.973 17.8096 16.5486 18.4441C15.935 19.361 15.6715 20.6273 16.0072 21.6488C16.0062 21.6549 16.0023 21.6595 16.0015 21.6658C15.9538 22.0582 15.9595 22.4554 16.0184 22.8462C16.1986 24.0744 15.7735 25.2341 14.8995 25.9528C12.5103 23.5042 9.18377 19.3343 9.53665 17.5327C9.63216 17.0451 9.71203 16.5253 9.79418 15.989C10.1125 13.9123 10.4664 11.6106 11.9843 10.1152C11.8052 11.1412 11.7955 12.4088 12.5567 13.186C12.6677 13.2993 12.8133 13.356 12.9587 13.356C13.104 13.356 13.2496 13.2993 13.3606 13.186C13.4671 13.0771 13.527 12.9295 13.527 12.7756C13.527 12.6217 13.4671 12.4741 13.3606 12.3653C12.7099 11.7007 13.1433 9.91556 13.418 9.11605C16.8897 7.19971 19.3122 9.07557 19.4265 9.16713C19.5442 9.26285 19.6944 9.30693 19.8439 9.28971C19.9935 9.27249 20.1303 9.19537 20.2242 9.07528C20.2709 9.0158 20.3056 8.9475 20.3264 8.8743C20.3472 8.8011 20.3537 8.72443 20.3454 8.64867C20.3372 8.57292 20.3144 8.49957 20.2783 8.43282C20.2423 8.36607 20.1937 8.30723 20.1354 8.25967C20.0259 8.17015 17.784 6.40326 14.4894 7.41214C15.7343 6.32128 19.0942 4.06062 24.1483 5.78107C32.0072 8.45556 32.8555 11.5636 32.8555 12.7756C32.8555 14.0836 32.4675 14.719 32.2243 14.9884C30.9555 14.3874 28.6862 14.0995 27.2519 16.5398Z"></path>
<path fill="#532C7F" d="M19.2948 20.4161C19.2445 20.3599 19.1843 20.3152 19.1178 20.2844C19.0512 20.2536 18.9797 20.2374 18.9072 20.2367C18.8348 20.236 18.763 20.2509 18.696 20.2804C18.6289 20.31 18.568 20.3536 18.5168 20.4088C18.4656 20.464 18.4251 20.5296 18.3977 20.6018C18.3702 20.674 18.3564 20.7514 18.3571 20.8294C18.3577 20.9074 18.3727 20.9846 18.4013 21.0563C18.4299 21.128 18.4715 21.1928 18.5236 21.247L19.069 21.8347C19.1755 21.9494 19.3152 22.0068 19.4547 22.0068C19.5942 22.0068 19.7338 21.9494 19.8403 21.8347C19.9426 21.7245 20 21.575 20 21.4192C20 21.2634 19.9426 21.1139 19.8403 21.0037L19.2948 20.4161ZM14.4131 9.09601C14.3436 9.11473 14.2782 9.14803 14.2207 9.19398C14.1631 9.23994 14.1145 9.29767 14.0777 9.36386C14.0408 9.43006 14.0164 9.50342 14.0059 9.57977C13.9954 9.65612 13.9989 9.73396 14.0163 9.80883C14.0896 10.124 14.3863 10.3164 14.678 10.2363C14.749 10.2165 16.4459 9.78503 17.3304 11.692C17.3623 11.7611 17.4067 11.8227 17.4608 11.8733C17.5149 11.9239 17.5777 11.9626 17.6457 11.987C17.7137 12.0114 17.7855 12.0211 17.8569 12.0156C17.9284 12.0101 17.9982 11.9894 18.0622 11.9548C18.1263 11.9203 18.1835 11.8725 18.2304 11.8142C18.2773 11.7559 18.3132 11.6882 18.3358 11.615C18.3585 11.5418 18.3675 11.4645 18.3624 11.3875C18.3574 11.3105 18.3382 11.2353 18.3062 11.1663C17.2882 8.9729 15.3148 8.85375 14.4131 9.09601Z"></path>
</svg>
