<svg xmlns="http://www.w3.org/2000/svg" fill="none" viewBox="0 0 40 40" height="40" width="40">
<path stroke-linejoin="round" stroke-linecap="round" stroke-miterlimit="22.9256" stroke="#532C7F" d="M4 27.207H9.37697M17.6995 27.207H21.4493M29.7717 27.207H36M32.6197 36.207H4V25.207C4 24.657 4.43461 24.207 4.96579 24.207H9.45082C9.2903 25.6633 9.29565 27.0468 9.50548 28.2855C10.465 33.9496 17.4216 33.1772 17.6854 27.8477C17.7439 26.6652 17.611 25.4088 17.4698 24.207H21.5231C21.3625 25.6633 21.368 27.0468 21.5778 28.2855C22.5373 33.9496 29.4939 33.1772 29.7577 27.8477C29.8162 26.6652 29.6833 25.4088 29.5421 24.207H35.0342C35.5654 24.207 36 24.6572 36 25.207V36.207H32.6197Z"></path>
<path stroke-linejoin="round" stroke-linecap="round" stroke-miterlimit="22.9256" stroke="#532C7F" d="M11.9663 20.6896C11.1299 23.3682 10.7771 25.9733 11.1452 27.9754C11.7486 31.2578 15.6255 30.6842 15.7812 27.7842C16.0123 23.4815 12.5564 14.826 19 9.20703C16.2612 11.4687 13.7412 15.6067 12.2883 19.7217" clip-rule="evenodd" fill-rule="evenodd"></path>
<path stroke-linejoin="round" stroke-linecap="round" stroke-miterlimit="22.9256" stroke="#532C7F" d="M34 30.3485V30.207M34 32.207V32.026"></path>
<path stroke-linejoin="round" stroke-linecap="round" stroke-miterlimit="22.9256" stroke="#532C7F" d="M31 9.20703C26.2567 13.1241 22.1697 22.6686 23.1452 27.9754C23.7487 31.2578 27.6255 30.6842 27.7812 27.7842C28.0123 23.4815 24.5565 14.826 31 9.20703Z" clip-rule="evenodd" fill-rule="evenodd"></path>
<path stroke-linejoin="round" stroke-linecap="round" stroke-miterlimit="22.9256" stroke="#532C7F" d="M26.7604 3.20703C26.7604 5.06993 25.2393 6.59413 23.3802 6.59413C25.2393 6.59413 26.7604 8.11832 26.7604 9.98122C26.7604 8.11832 28.2816 6.59413 30.1407 6.59413C28.2816 6.59413 26.7604 5.06993 26.7604 3.20703ZM13.2395 3.20703C13.2395 5.06993 11.7184 6.59413 9.85922 6.59413C11.7184 6.59413 13.2395 8.11832 13.2395 9.98122C13.2395 8.11832 14.7606 6.59413 16.6198 6.59413C14.7606 6.59413 13.2395 5.06993 13.2395 3.20703ZM33.1025 14.4006C33.1025 15.9974 31.7986 17.3038 30.205 17.3038C31.7986 17.3038 33.1025 18.6103 33.1025 20.207C33.1025 18.6103 34.4064 17.3038 36 17.3038C34.4064 17.3038 33.1025 15.9974 33.1025 14.4006ZM6.89751 14.4006C6.89751 15.9974 5.59363 17.3038 4 17.3038C5.59363 17.3038 6.89751 18.6103 6.89751 20.207C6.89751 18.6103 8.2014 17.3038 9.79503 17.3038C8.2014 17.3038 6.89751 15.9974 6.89751 14.4006Z" clip-rule="evenodd" fill-rule="evenodd"></path>
</svg>
