<svg xmlns="http://www.w3.org/2000/svg" fill="none" viewBox="0 0 40 40" height="40" width="40">
<path stroke-linejoin="round" stroke-linecap="round" stroke-miterlimit="10" stroke="#532C7F" d="M21.96 4.63281C21.9563 3.69532 21.9001 2.33196 21.6502 1.20274C21.5595 0.792902 21.1616 0.527591 20.7477 0.597122L19.9573 0.730012C19.516 0.804152 19.221 1.23017 19.3141 1.66782C19.5185 2.62969 19.5868 3.74899 19.604 4.62773"></path>
<path stroke-linejoin="round" stroke-linecap="round" stroke-miterlimit="10" stroke="#532C7F" d="M21.8889 4.85977C21.5027 4.825 21.1462 4.81328 20.8301 4.81836C16.3029 4.89172 9.78288 8.75225 9.64936 17.7657C9.51585 26.7793 3.69383 30.4456 2.90595 34.5291C2.59845 36.123 4.76578 37.4826 8.03593 38.0269"></path>
<path stroke-linejoin="round" stroke-linecap="round" stroke-miterlimit="10" stroke="#532C7F" d="M29.6895 27.356C30.6735 25.2557 31.3657 22.7972 31.6586 19.9351L31.803 17.4935C31.8123 16.7669 31.7866 16.0807 31.7294 15.4326"></path>
<path stroke-linejoin="round" stroke-linecap="round" stroke-miterlimit="10" stroke="#532C7F" d="M31.9467 33.0508L32.6479 30.272C32.7203 29.9851 32.6276 29.6804 32.4048 29.4856C31.5333 28.7231 30.5756 28.0651 29.5512 27.5251C29.2691 27.3764 28.9243 27.4166 28.6799 27.6213L27.0141 29.0171C26.6606 29.3133 26.119 29.1268 26.0228 28.6758C25.8943 28.0739 25.7313 27.2963 25.6015 26.6307C25.5384 26.3071 25.2808 26.0542 24.9551 26.0033C24.1933 25.8843 23.4235 25.8245 22.6525 25.8246C21.8691 25.8246 21.1002 25.886 20.3498 26.0033C20.024 26.0542 19.7665 26.3071 19.7034 26.6307C19.5736 27.2963 19.4106 28.0739 19.2822 28.6758C19.1859 29.1268 18.6443 29.3133 18.2908 29.0171L16.625 27.6213C16.3805 27.4166 16.0358 27.3764 15.7537 27.5251C14.7293 28.0651 13.7716 28.7231 12.9001 29.4856C12.6773 29.6804 12.5846 29.9851 12.657 30.272L13.3646 33.0762"></path>
<path stroke-linejoin="round" stroke-linecap="round" stroke-miterlimit="10" stroke="#532C7F" d="M13.1501 33.3086L11.1674 32.3935C10.7934 32.2209 10.3515 32.3655 10.1472 32.7233C9.24711 34.2999 8.57914 36.5609 8.19742 38.4679C8.0907 39.0011 8.5407 39.4804 9.07937 39.4061C10.1469 39.2589 11.9341 39.0314 14.1 38.8294L16.5584 38.627C18.4827 38.4902 20.5729 38.3943 22.6523 38.3943C28.2456 38.3943 33.9172 39.0879 36.2254 39.4062C36.7641 39.4804 37.2141 39.0012 37.1073 38.468C36.7255 36.561 36.0576 34.3 35.1575 32.7234C34.9532 32.3656 34.5113 32.2209 34.1373 32.3936L32.2141 33.2812"></path>
<path stroke-linejoin="round" stroke-linecap="round" stroke-miterlimit="10" stroke="#532C7F" d="M33.3478 36.561L33.6641 35.2269C33.6963 35.092 33.6924 34.9509 33.6527 34.818C33.6131 34.6851 33.5391 34.5649 33.4383 34.4696C32.473 33.5615 31.406 32.7732 30.2574 32.1268C29.9445 31.9507 29.5528 32.004 29.3015 32.2606L26.9886 34.6218C26.9886 34.6218 26.4189 33.0207 25.9356 31.663C25.8406 31.3963 25.6108 31.1994 25.332 31.1503C24.4475 30.9942 23.5511 30.9158 22.653 30.916C21.7549 30.9159 20.8584 30.9942 19.9739 31.1503C19.6953 31.1994 19.4653 31.3964 19.3704 31.663C18.8803 33.0396 18.3174 34.6218 18.3174 34.6218L16.0367 32.2935C15.9092 32.1633 15.7407 32.0812 15.5597 32.061C15.3786 32.0408 15.1962 32.0838 15.0432 32.1826C14.2637 32.6855 12.8235 33.6465 11.8944 34.4584C11.7858 34.5531 11.7051 34.6757 11.661 34.8129C11.6169 34.9502 11.6111 35.0969 11.6443 35.2371L11.9582 36.561"></path>
<path stroke-linejoin="round" stroke-linecap="round" stroke-miterlimit="10" stroke="#532C7F" d="M27.4231 4.55699C25.8888 3.89207 24.0835 3.53215 21.9609 3.6516C21.9609 3.6516 21.8924 12.6803 34.4093 16.1104C34.9997 16.2723 35.5439 15.7364 35.3857 15.1448C34.8004 12.9545 33.2136 8.47268 29.5685 5.79183"></path>
<path stroke-linejoin="round" stroke-linecap="round" stroke-miterlimit="10" stroke="#532C7F" d="M22.1641 3.75909C23.2382 4.34213 28.3585 7.30353 32.0066 12.6172"></path>
<path stroke-linejoin="round" stroke-linecap="round" stroke-miterlimit="10" stroke="#532C7F" d="M26.6454 17.5566C26.6454 17.5566 26.9259 20.1837 25.8281 22.5264"></path>
</svg>
