<svg xmlns="http://www.w3.org/2000/svg" fill="none" viewBox="0 0 40 40" height="40" width="40">
<g clip-path="url(#clip0_671_87)">
<path stroke-linejoin="round" stroke-linecap="round" stroke-miterlimit="2.613" stroke="#532C7F" d="M33.0059 12.7768C36.3576 16.1285 34.5462 23.3741 28.96 28.9604C23.3738 34.5466 16.1282 36.3579 12.7765 33.0062C9.42476 29.6546 11.2362 22.4089 16.8224 16.8227C22.4086 11.2365 29.6542 9.4251 33.0059 12.7768Z"></path>
<path stroke-linejoin="round" stroke-linecap="round" stroke-miterlimit="2.613" stroke="#532C7F" d="M16.768 21.7218C15.8262 23.0651 15.0547 24.5381 14.6042 26.0554C14.1703 27.5164 13.7978 30.0111 15.2777 31.04C16.4649 31.8654 18.4446 31.5599 19.7277 31.1789C24.6498 29.7174 29.7172 24.65 31.1787 19.7279C31.6125 18.2669 31.985 15.7717 30.5051 14.7432C29.3179 13.9179 27.3383 14.2234 26.0551 14.6044C24.5377 15.0549 23.0647 15.8266 21.7213 16.7684"></path>
<path stroke-linejoin="round" stroke-linecap="round" stroke-miterlimit="2.613" stroke="#532C7F" d="M12.7773 33.0061L14.8005 35.0291C20.3865 40.6153 29.4436 40.6153 35.0299 35.0291C40.6161 29.4429 40.6161 20.3858 35.0299 14.7997L33.0068 12.7766"></path>
<path stroke-linejoin="round" stroke-linecap="round" stroke-miterlimit="2.613" stroke="#532C7F" d="M19.9238 34.4029C20.8009 35.0241 21.7082 35.5512 22.6272 35.9814"></path>
<path stroke-linejoin="round" stroke-linecap="round" stroke-miterlimit="2.613" stroke="#532C7F" d="M33.6377 29.1014C33.0626 28.1584 32.3622 27.153 31.5536 26.116M29.957 34.1345C32.3351 35.4434 34.2136 35.8449 35.0293 35.0292"></path>
<path stroke-linejoin="round" stroke-linecap="round" stroke-miterlimit="2.613" stroke="#532C7F" d="M34.4023 19.9241C35.0236 20.8012 35.5507 21.7085 35.9809 22.6274"></path>
<path stroke-linejoin="round" stroke-linecap="round" stroke-miterlimit="2.613" stroke="#532C7F" d="M24.7427 11.7002C23.8854 9.72208 22.5145 7.69818 20.6897 5.8735C15.7242 0.907966 9.28369 -0.702107 6.30432 2.2771C3.32511 5.25647 4.93518 11.697 9.90064 16.6625C11.229 17.9909 12.6629 19.0784 14.1077 19.9028"></path>
<path stroke-linejoin="round" stroke-linecap="round" stroke-miterlimit="2.613" stroke="#532C7F" d="M21.8651 12.9144C21.0813 11.1133 19.8296 9.43266 18.48 8.08305C16.8187 6.42181 14.656 4.90884 12.3842 4.23424C11.2621 3.90111 9.14375 3.53838 8.33727 4.6983C7.67563 5.65001 7.95844 7.33587 8.26156 8.3568C8.93617 10.6286 10.4491 12.7914 12.1105 14.4526C13.2423 15.5845 14.607 16.6475 16.0803 17.4233"></path>
<path stroke-linejoin="round" stroke-linecap="round" stroke-miterlimit="2.613" stroke="#532C7F" d="M11.3731 25.603C8.85828 25.1794 6.44618 23.998 4.5054 22.0573C-0.460133 17.0917 -0.460133 9.04097 4.5054 4.07544L6.3036 2.27724"></path>
<path stroke-linejoin="round" stroke-linecap="round" stroke-miterlimit="2.613" stroke="#532C7F" d="M5.74273 16.788C6.25406 15.9497 6.87656 15.056 7.5953 14.1343M9.01452 21.2619C6.90062 22.4252 5.23078 22.7822 4.50586 22.0571"></path>
<path stroke-linejoin="round" stroke-linecap="round" stroke-miterlimit="2.613" stroke="#532C7F" d="M5.06132 8.63024C4.50914 9.40993 4.04055 10.2163 3.6582 11.0332"></path>
<path stroke-linejoin="round" stroke-linecap="round" stroke-miterlimit="2.613" stroke="#532C7F" d="M19.0312 19.0322H19.0319"></path>
</g>
<defs>
<clipPath id="clip0_671_87">
<rect fill="white" height="40" width="40"></rect>
</clipPath>
</defs>
</svg>
