<svg xmlns="http://www.w3.org/2000/svg" fill="none" viewBox="0 0 40 40" height="40" width="40">
<path fill="#532C7F" d="M21.9212 11.8228C21.2398 10.678 20.5788 9.41738 19.9927 8C19.3999 9.41738 18.7457 10.678 18.0643 11.8228C17.5396 12.7155 17.0013 13.5332 16.4766 14.3169C16.1631 14.0034 15.7542 13.7036 15.0864 13.7036C14.2415 13.7036 13.8122 14.1806 13.4646 14.5554C13.1239 14.9233 12.9127 15.1346 12.4629 15.1346C12.0132 15.1346 11.8019 14.9233 11.4612 14.5554C11.1137 14.1738 10.6776 13.7036 9.83943 13.7036C9.00127 13.7036 8.56515 14.1806 8.21762 14.5622C7.87691 14.9302 7.66566 15.1414 7.22273 15.1414C6.7798 15.1414 6.56174 14.9302 6.22103 14.5622C5.8735 14.1806 5.43738 13.7104 4.59241 13.7104C4.36072 13.7104 4.16992 13.9012 4.16992 14.1329C4.16992 14.3646 4.36072 14.5554 4.59241 14.5554C5.04215 14.5554 5.2534 14.7666 5.59411 15.1346C5.94164 15.5162 6.37776 15.9864 7.22273 15.9864C8.06771 15.9864 8.49701 15.5094 8.84454 15.1278C9.18525 14.7598 9.3965 14.5486 9.83943 14.5486C10.2824 14.5486 10.5004 14.7598 10.8411 15.1278C11.1887 15.5094 11.6248 15.9796 12.4629 15.9796C13.3011 15.9796 13.7372 15.5026 14.0847 15.1278C14.4255 14.7598 14.6367 14.5486 15.0864 14.5486C15.4885 14.5486 15.6997 14.7257 15.9859 15.0324C15.543 15.6729 15.1205 16.2862 14.7185 16.879C14.112 16.9949 13.7577 17.3765 13.4646 17.6968C13.1239 18.0647 12.9127 18.276 12.4629 18.276C12.0132 18.276 11.8019 18.0647 11.4612 17.6968C11.1137 17.3152 10.6776 16.845 9.83943 16.845C9.00127 16.845 8.56515 17.322 8.21762 17.7036C7.87691 18.0716 7.66566 18.2828 7.22273 18.2828C6.7798 18.2828 6.56174 18.0716 6.22103 17.7036C5.8735 17.322 5.43738 16.8518 4.59241 16.8518C4.36072 16.8518 4.16992 17.0426 4.16992 17.2743C4.16992 17.506 4.36072 17.6968 4.59241 17.6968C5.04215 17.6968 5.2534 17.908 5.59411 18.276C5.94164 18.6576 6.37776 19.1278 7.22273 19.1278C8.06771 19.1278 8.49701 18.6508 8.84454 18.2692C9.18525 17.9012 9.3965 17.6899 9.83943 17.6899C10.2824 17.6899 10.5004 17.9012 10.8411 18.2692C11.1887 18.6508 11.6248 19.121 12.4629 19.121C12.9195 19.121 13.2534 18.9779 13.5192 18.7939C13.0353 19.6525 12.6469 20.5111 12.3812 21.4174C11.9927 21.3901 11.7815 21.1925 11.468 20.8518C11.1205 20.4702 10.6844 20 9.84624 20C9.00808 20 8.57196 20.477 8.22443 20.8586C7.89053 21.2266 7.67248 21.4378 7.22955 21.4378C6.7798 21.4378 6.56856 21.2266 6.22784 20.8586C5.88031 20.477 5.4442 20.0068 4.59922 20.0068C4.36753 20.0068 4.17674 20.1976 4.17674 20.4293C4.17674 20.661 4.36753 20.8518 4.59922 20.8518C5.04897 20.8518 5.26021 21.063 5.60093 21.431C5.94846 21.8126 6.38457 22.2828 7.22955 22.2828C8.06771 22.2828 8.50382 21.8058 8.85135 21.4242C9.18525 21.0562 9.3965 20.845 9.84624 20.845C10.296 20.845 10.5072 21.0562 10.8479 21.4242C11.1546 21.7581 11.5226 22.1601 12.1767 22.2555C12.0677 22.8143 11.9996 23.3935 11.9996 24C11.9996 24.1635 12.0132 24.3203 12.0268 24.477C11.836 24.3816 11.6725 24.2249 11.468 24C11.1205 23.6184 10.6844 23.1482 9.84624 23.1482C9.00808 23.1482 8.57196 23.6252 8.22443 24.0068C7.88372 24.3748 7.67248 24.586 7.22955 24.586C6.78662 24.586 6.56856 24.3748 6.22784 24.0068C5.88031 23.6252 5.4442 23.155 4.59922 23.155C4.36753 23.155 4.17674 23.3458 4.17674 23.5775C4.17674 23.8092 4.36753 24 4.59922 24C5.04897 24 5.26021 24.2112 5.60093 24.5792C5.94846 24.9608 6.38457 25.431 7.22955 25.431C8.07452 25.431 8.50382 24.954 8.85135 24.5724C9.19207 24.2044 9.40331 23.9932 9.84624 23.9932C10.2892 23.9932 10.5072 24.2044 10.8479 24.5724C11.1478 24.8995 11.5089 25.2947 12.1358 25.3969C12.2789 26.1874 12.5311 26.937 12.8854 27.632C12.7628 27.6865 12.6333 27.7274 12.4698 27.7274C12.02 27.7274 11.8088 27.5162 11.468 27.1482C11.1205 26.7666 10.6844 26.2964 9.84624 26.2964C9.00808 26.2964 8.57196 26.7734 8.22443 27.155C7.88372 27.523 7.67248 27.7342 7.22955 27.7342C6.78662 27.7342 6.56856 27.523 6.22784 27.155C5.88031 26.7734 5.4442 26.3032 4.59922 26.3032C4.36753 26.3032 4.17674 26.494 4.17674 26.7257C4.17674 26.9574 4.36753 27.1482 4.59922 27.1482C5.04897 27.1482 5.26021 27.3595 5.60093 27.7274C5.94846 28.109 6.38457 28.5792 7.22955 28.5792C8.07452 28.5792 8.50382 28.1022 8.85135 27.7274C9.19207 27.3595 9.40331 27.1482 9.84624 27.1482C10.2892 27.1482 10.5072 27.3595 10.8479 27.7274C11.1955 28.109 11.6316 28.5792 12.4698 28.5792C12.8105 28.5792 13.083 28.4974 13.3147 28.3816C14.7457 30.5622 17.2057 32 20.0064 32C23.0251 32 25.6486 30.3305 27.0115 27.8569H35.4067C35.6384 27.8569 35.8292 27.6661 35.8292 27.4344C35.8292 27.2027 35.6384 27.0119 35.4067 27.0119H27.4135C27.7065 26.2896 27.8973 25.5196 27.9723 24.7087H35.4067C35.6384 24.7087 35.8292 24.5179 35.8292 24.2862C35.8292 24.0545 35.6384 23.8637 35.4067 23.8637H27.9996C27.9859 23.0528 27.8701 22.2896 27.6657 21.5605H35.4067C35.6384 21.5605 35.8292 21.3697 35.8292 21.138C35.8292 20.9063 35.6384 20.7155 35.4067 20.7155H27.3863C27.0933 19.9319 26.7048 19.1755 26.2551 18.4123H35.4067C35.6384 18.4123 35.8292 18.2215 35.8292 17.9898C35.8292 17.7581 35.6384 17.5673 35.4067 17.5673H25.7372C25.2602 16.8245 24.7287 16.0613 24.1767 15.2641H35.4067C35.6384 15.2641 35.8292 15.0733 35.8292 14.8416C35.8292 14.6099 35.6384 14.4191 35.4067 14.4191H23.5975C23.0456 13.6082 22.4868 12.7564 21.9416 11.8228H21.9212ZM24.02 20.4225C24.1427 20.3475 24.3198 20.368 24.4084 20.4906C26.037 22.4259 26.2415 25.2947 24.7355 27.4821C23.2295 29.6695 20.4902 30.4804 18.1052 29.6695C17.9553 29.6082 17.8803 29.4719 17.9008 29.3083C17.928 29.1652 18.0575 29.0562 18.221 29.0767C20.2108 29.2402 22.2483 28.3543 23.4612 26.5963C24.681 24.8245 24.7764 22.6235 23.9246 20.7973C23.8496 20.6746 23.9042 20.5111 24.0268 20.4157L24.02 20.4225Z"></path>
</svg>
