<svg xmlns="http://www.w3.org/2000/svg" fill="none" viewBox="0 0 40 40" height="40" width="40">
<path stroke-miterlimit="10" stroke="#532C7F" d="M22.3437 7.57813C22.3437 8.8725 21.2944 9.92188 20 9.92188C18.7056 9.92188 17.6562 8.8725 17.6562 7.57813C17.6562 6.28376 20 2.89065 20 2.89065C20 2.89065 22.3437 6.28376 22.3437 7.57813Z"></path>
<path stroke-miterlimit="10" stroke="#532C7F" d="M38.7789 23.9844C37.3129 23.9844 35.9318 24.6725 35.0469 25.8414C33.7486 27.5561 31.6742 28.6719 29.3749 28.6719C27.084 28.6719 25.0602 27.5641 23.7831 25.8599C22.9004 24.6819 21.5092 23.9844 20.0371 23.9844H20.0006C18.5079 23.9844 17.1021 24.6864 16.2032 25.878C14.9253 27.5719 12.9079 28.6719 10.625 28.6719C8.32584 28.6719 6.25155 27.5562 4.95335 25.8417C4.06952 24.6743 2.68476 23.9844 1.22047 23.9844H1.17188V38.0469H38.828V23.9844H38.7789Z"></path>
<path stroke-miterlimit="10" stroke="#532C7F" d="M15.3125 16.9531C15.3125 19.542 13.2138 21.6406 10.625 21.6406C8.03617 21.6406 5.9375 19.542 5.9375 16.9531C5.9375 14.3643 10.625 7.57817 10.625 7.57817C10.625 7.57817 15.3125 14.3643 15.3125 16.9531Z"></path>
<path stroke-miterlimit="10" stroke="#532C7F" d="M34.0625 16.9531C34.0625 19.542 31.9638 21.6406 29.375 21.6406C26.7862 21.6406 24.6875 19.542 24.6875 16.9531C24.6875 14.3643 29.375 7.57817 29.375 7.57817C29.375 7.57817 34.0625 14.3643 34.0625 16.9531Z"></path>
<path stroke-miterlimit="10" stroke="#532C7F" d="M38.828 33.3594H1.17188"></path>
</svg>
