<svg xmlns="http://www.w3.org/2000/svg" fill="none" viewBox="0 0 41 40" height="40" width="41">
<path fill="#532C7F" d="M27.2798 3.94821C27.4081 3.83297 27.6213 3.81732 27.7512 3.93883C27.881 4.05094 27.9029 4.26579 27.7945 4.39981C26.5794 5.82605 25.5594 7.41185 24.6959 9.07223C24.0211 10.3931 23.448 11.7677 23.023 13.1898C22.5411 12.7273 22.0728 12.2501 21.6035 11.775C22.4379 9.94309 23.4167 8.16643 24.6552 6.57489C25.4192 5.59816 26.2832 4.6908 27.2798 3.94821Z"></path>
<path fill="#532C7F" d="M15.0868 6.61148C15.2693 6.53013 15.4889 6.59115 15.6182 6.73872C19.5371 10.6587 23.457 14.5781 27.3764 18.4969C27.4922 18.6174 27.6439 18.7285 27.6711 18.9053C27.7107 19.1019 27.6064 19.3198 27.4197 19.4001C27.2434 19.4893 27.0203 19.4393 26.8888 19.2953C22.9084 15.3154 18.9275 11.3361 14.9491 7.35459C14.716 7.14652 14.7937 6.72099 15.0868 6.61148Z"></path>
<path fill="#532C7F" d="M20.6726 14.0234C21.2494 14.5976 21.8324 15.1822 22.4107 15.761C22.2167 16.8842 22.1135 18.0242 22.1249 19.1641C22.1265 19.7044 22.1161 20.2572 22.2803 20.7786C22.4842 21.4519 22.9228 22.0156 23.2258 22.6429C23.6122 23.4209 23.7644 24.3017 23.7243 25.1658C23.6784 25.9423 23.3337 26.6963 22.7757 27.2381C22.2803 27.7341 21.6149 28.0522 20.9198 28.1346C19.9639 28.2571 18.9596 27.9181 18.2811 27.2324C17.6601 26.6306 17.3096 25.7639 17.331 24.9009C17.3837 23.8246 17.7878 22.7837 18.3734 21.8878C18.7004 21.4159 18.9345 20.8777 19.0315 20.3114C19.2855 18.4972 19.771 16.7242 20.3483 14.9887C20.452 14.6654 20.5861 14.352 20.6726 14.0234Z"></path>
<path fill="#532C7F" d="M3.50224 21.5639C3.49494 21.3188 3.72073 21.1024 3.96479 21.1133C8.1538 21.1138 12.3423 21.1112 16.5313 21.1149C16.8358 21.1102 17.0596 21.47 16.9276 21.7427C16.3775 22.7753 15.9884 23.9298 16.0312 25.113C16.0568 26.0611 16.3816 27.0065 16.9766 27.7491C17.6264 28.5761 18.5786 29.1565 19.609 29.3667C20.6927 29.5925 21.8608 29.3969 22.8093 28.8244C23.3725 28.4854 23.8533 28.0145 24.2069 27.4602C24.8613 26.4517 25.0924 25.1985 24.9234 24.0143C24.8155 23.2227 24.5391 22.4613 24.1657 21.7584C24.0218 21.4763 24.2517 21.1024 24.5698 21.1144C28.7239 21.1117 32.8785 21.1138 37.0326 21.1133C37.298 21.0998 37.5368 21.3553 37.4941 21.6207C37.4753 21.8465 37.261 22.0321 37.0347 22.0207C33.1241 22.0238 29.2125 22.0165 25.302 22.0243C25.7505 23.0746 25.969 24.2338 25.8563 25.3743C25.7009 27.1405 24.6887 28.8489 23.1139 29.7031C22.0589 30.2871 20.8032 30.491 19.6158 30.2918C17.848 30.0055 16.2523 28.7847 15.5567 27.1285C15.1343 26.156 15.0279 25.0635 15.1869 24.0195C15.2881 23.3296 15.4993 22.6579 15.7809 22.0207C11.8427 22.0212 7.90453 22.0212 3.96635 22.0207C3.71761 22.0358 3.49285 21.8121 3.50224 21.5639Z"></path>
<path fill="#532C7F" d="M3.78211 25.1398C3.96254 25.0767 4.15601 25.1153 4.34166 25.1262C4.872 25.1716 5.38565 25.3666 5.819 25.6748C6.31596 26.0122 6.72793 26.494 7.31354 26.6849C7.81833 26.8471 8.37788 26.8445 8.88162 26.6818C9.46463 26.4862 9.87503 26.0049 10.3725 25.6696C10.8325 25.3416 11.3852 25.1471 11.95 25.1179C12.7338 25.0532 13.5613 25.2425 14.1788 25.7457C14.4332 25.9835 14.2851 26.4701 13.9347 26.5086C13.6651 26.5644 13.4816 26.3298 13.2568 26.2338C12.7129 25.972 12.0668 25.9527 11.4911 26.1175C10.8132 26.3277 10.3621 26.9149 9.76552 27.2663C9.06831 27.7013 8.20162 27.7941 7.40428 27.6496C6.83952 27.5485 6.33056 27.2538 5.89357 26.8909C5.46179 26.5311 5.00758 26.142 4.43187 26.0539C4.16644 25.9788 3.83583 26.0941 3.62671 25.8719C3.40822 25.6586 3.49426 25.2446 3.78211 25.1398Z"></path>
<path fill="#532C7F" d="M28.1893 25.15C28.9532 25.0358 29.774 25.1318 30.4384 25.5469C31.0323 25.8937 31.4787 26.4788 32.1504 26.692C32.8335 26.897 33.622 26.8318 34.217 26.4177C34.6571 26.1122 35.0367 25.7195 35.5144 25.4676C35.9921 25.2069 36.5428 25.0963 37.0841 25.1083C37.3411 25.1203 37.5424 25.3842 37.4908 25.6355C37.459 25.853 37.2488 26.0235 37.0298 26.012C36.6299 26.0125 36.2257 26.1007 35.88 26.3072C35.3809 26.6065 34.9862 27.0529 34.4709 27.3293C33.8733 27.6698 33.1626 27.7605 32.4857 27.6891C31.9397 27.6359 31.4172 27.4195 30.9765 27.0957C30.489 26.7431 30.0619 26.2707 29.4648 26.1038C28.8484 25.9416 28.1527 25.9823 27.5969 26.3124C27.4462 26.3974 27.31 26.5392 27.1249 26.5366C26.9075 26.5507 26.6978 26.3739 26.6692 26.1591C26.6389 25.9948 26.7077 25.818 26.8433 25.7195C27.2376 25.4243 27.7027 25.2256 28.1893 25.15Z"></path>
<path fill="#532C7F" d="M3.77543 31.5979C3.85209 31.5614 3.93813 31.563 4.02053 31.563C4.75163 31.5656 5.48274 31.563 6.21385 31.564C6.48241 31.5567 6.70612 31.8331 6.6498 32.0944C6.61487 32.3238 6.3875 32.4871 6.16066 32.4719C5.43007 32.4719 4.69949 32.4735 3.96942 32.4714C3.7551 32.4766 3.54755 32.3197 3.51209 32.1053C3.46568 31.9004 3.58301 31.6788 3.77543 31.5979Z"></path>
<path fill="#532C7F" d="M9.97907 31.5953C10.0568 31.5567 10.1449 31.564 10.2294 31.563C10.9584 31.5661 11.6879 31.5619 12.417 31.5651C12.6615 31.5651 12.8701 31.8023 12.8488 32.0443C12.8373 32.2868 12.6104 32.4876 12.3674 32.4719C11.6551 32.474 10.9422 32.4704 10.2299 32.4735C10.0359 32.4876 9.82628 32.4015 9.74128 32.218C9.61509 31.9922 9.74076 31.6834 9.97907 31.5953Z"></path>
<path fill="#532C7F" d="M16.0909 31.6123C16.1634 31.5732 16.2463 31.5607 16.3287 31.5633C17.077 31.5654 17.8253 31.5628 18.5736 31.5644C18.8375 31.567 19.0534 31.8423 18.9945 32.101C18.9554 32.3221 18.7405 32.4822 18.5184 32.4712C17.7893 32.4728 17.0598 32.4722 16.3303 32.4717C16.1243 32.4806 15.9246 32.3481 15.8656 32.1489C15.7947 31.9461 15.9032 31.7083 16.0909 31.6123Z"></path>
<path fill="#532C7F" d="M22.243 31.6137C22.3165 31.5715 22.401 31.5595 22.485 31.5631C23.2328 31.5662 23.9811 31.5621 24.7294 31.5652C25.0152 31.5668 25.2363 31.8937 25.1315 32.1602C25.0704 32.3532 24.8744 32.4793 24.6741 32.472C23.9435 32.4731 23.2135 32.4731 22.4834 32.472C22.2764 32.4804 22.073 32.3459 22.0177 32.144C21.952 31.9417 22.0568 31.7097 22.243 31.6137Z"></path>
<path fill="#532C7F" d="M28.4407 31.5943C28.5184 31.5583 28.6055 31.564 28.6899 31.563C29.421 31.5661 30.1527 31.5625 30.8838 31.5646C31.1669 31.5687 31.3912 31.8879 31.2884 32.1554C31.23 32.3504 31.0298 32.4792 30.829 32.4719C30.0979 32.4724 29.3663 32.473 28.6352 32.4719C28.4323 32.4808 28.2336 32.3473 28.1773 32.1512C28.0991 31.9332 28.2284 31.6767 28.4407 31.5943Z"></path>
<path fill="#532C7F" d="M34.6037 31.6061C34.6767 31.568 34.7591 31.5607 34.841 31.5628C35.5883 31.5665 36.3361 31.5607 37.0839 31.5654C37.3253 31.5738 37.5256 31.8121 37.4974 32.052C37.4854 32.2882 37.2664 32.4796 37.0322 32.4712C36.3017 32.4733 35.5711 32.4718 34.8405 32.4718C34.6533 32.4806 34.4588 32.3784 34.3852 32.2016C34.2794 31.9868 34.3847 31.7015 34.6037 31.6061Z"></path>
<path fill="#532C7F" d="M6.95768 35.2485C7.73364 35.2266 8.5122 35.2444 9.2892 35.2397C9.55358 35.2245 9.7846 35.4801 9.74705 35.7419C9.73141 35.9682 9.51708 36.1538 9.2918 36.1444C8.54244 36.1455 7.79308 36.146 7.04425 36.1444C6.83513 36.146 6.64219 35.9869 6.60412 35.781C6.54884 35.5453 6.72145 35.2918 6.95768 35.2485Z"></path>
<path fill="#532C7F" d="M13.1125 35.2483C13.889 35.2248 14.6681 35.2441 15.4456 35.2389C15.6922 35.2285 15.917 35.4475 15.906 35.6962C15.9128 35.9392 15.6886 36.1546 15.4471 36.1442C14.6973 36.1442 13.9469 36.1452 13.197 36.1436C12.9581 36.1473 12.7443 35.9309 12.7522 35.6915C12.7459 35.4829 12.9091 35.2879 13.1125 35.2483Z"></path>
<path fill="#532C7F" d="M19.2663 35.2485C20.0427 35.2266 20.8213 35.2444 21.5988 35.2397C21.8669 35.2256 22.1031 35.4884 22.0546 35.7544C22.0332 35.977 21.8173 36.1559 21.5957 36.145C20.8489 36.145 20.1017 36.146 19.3549 36.1444C19.1145 36.1517 18.9018 35.9348 18.9044 35.697C18.9007 35.4874 19.0592 35.2866 19.2663 35.2485Z"></path>
<path fill="#532C7F" d="M25.4217 35.2484C26.1971 35.2265 26.9751 35.2447 27.7516 35.2395C27.9988 35.227 28.2236 35.4502 28.2121 35.6979C28.2189 35.9393 27.9952 36.1558 27.7553 36.1448C27.0226 36.1464 26.2904 36.1438 25.5583 36.1458C25.3586 36.1625 25.1521 36.0426 25.0874 35.8496C24.9826 35.6019 25.1583 35.2922 25.4217 35.2484Z"></path>
<path fill="#532C7F" d="M31.6227 35.2467C32.4008 35.2295 33.1798 35.2414 33.9584 35.2404C34.2363 35.2331 34.47 35.5298 34.3907 35.7984C34.3469 35.9965 34.156 36.1483 33.9532 36.1446C33.1908 36.1441 32.4284 36.1478 31.6665 36.1426C31.4 36.1332 31.1961 35.8521 31.2598 35.595C31.2957 35.4208 31.4454 35.2722 31.6227 35.2467Z"></path>
</svg>
