<svg xmlns="http://www.w3.org/2000/svg" fill="none" viewBox="0 0 56 26" height="26" width="56">
<g mask="url(#mask0_83_189)">
<path fill="black" d="M44.0685 25.3834L55.4777 13.8809C55.884 13.4691 55.884 12.8267 55.4777 12.4149L44.0685 0.912356C43.6622 0.500569 43.0253 0.500569 42.619 0.912356C42.2072 1.32414 42.2072 1.96653 42.619 2.37831L52.2877 12.1294H1.28112C0.721089 12.1294 0.259888 12.5961 0.259888 13.1616C0.259888 13.7271 0.721089 14.1883 1.28112 14.1883H52.2877L42.619 23.9175C42.4103 24.1206 42.3115 24.3787 42.3115 24.6367C42.3115 24.8948 42.4103 25.1528 42.619 25.356C43.0253 25.7678 43.6622 25.7678 44.0685 25.3834Z"></path>
</g>
</svg>
